<svg width="59" height="59" viewBox="0 0 59 59" fill="none" xmlns="http://www.w3.org/2000/svg">
<g clip-path="url(#clip0_39_778)">
<path d="M3.87344 21.6168C4.18358 22.6801 4.61396 23.7055 5.15828 24.6675L3.60761 26.6232C3.10127 27.2625 3.15824 28.1739 3.72787 28.7499L6.39881 31.4208C6.97478 31.9968 7.88619 32.0474 8.52544 31.541L10.4685 30.003C11.4685 30.579 12.5319 31.0283 13.6395 31.3448L13.9306 33.8449C14.0256 34.655 14.7091 35.2626 15.5193 35.2626H19.2978C20.108 35.2626 20.7915 34.6549 20.8865 33.8449L21.165 31.4334C22.3549 31.1233 23.4941 30.6612 24.5638 30.06L26.4436 31.5473C27.0828 32.0537 27.9942 31.9967 28.5702 31.4271L31.2411 28.7561C31.8171 28.1802 31.8677 27.2688 31.3614 26.6295L29.8993 24.775C30.507 23.7243 30.9816 22.6041 31.2981 21.4332L33.5513 21.1737C34.3615 21.0788 34.9691 20.3952 34.9691 19.585V15.8065C34.9691 14.9963 34.3615 14.3128 33.5513 14.2178L31.3298 13.9583C31.0259 12.8001 30.5702 11.6925 29.988 10.6545L31.3551 8.92658C31.8615 8.28733 31.8045 7.37591 31.2349 6.79995L28.5703 4.13533C27.9943 3.55937 27.0829 3.50874 26.4436 4.01508L24.7664 5.34422C23.6777 4.70497 22.5131 4.21761 21.2916 3.88849L21.0384 1.71756C20.9435 0.907413 20.2599 0.299805 19.4498 0.299805H15.6712C14.8611 0.299805 14.1775 0.907413 14.0826 1.71756L13.8294 3.88849C12.5762 4.22394 11.38 4.73028 10.2661 5.39486L8.52551 4.01508C7.88625 3.50874 6.97484 3.5657 6.39888 4.13533L3.72793 6.80628C3.15197 7.38224 3.10134 8.29365 3.60768 8.93291L5.06341 10.7747C4.48111 11.8254 4.03807 12.9457 3.74692 14.1102L1.41775 14.3761C0.607609 14.471 0 15.1546 0 15.9647V19.7433C0 20.5534 0.607609 21.237 1.41775 21.3319L3.87344 21.6168ZM17.5636 11.3951C21.0067 11.3951 23.8106 14.1989 23.8106 17.642C23.8106 21.0851 21.0067 23.889 17.5636 23.889C14.1206 23.889 11.3166 21.0851 11.3166 17.642C11.3166 14.1989 14.1205 11.3951 17.5636 11.3951Z" fill="#B5B3C2"/>
<path d="M54.9191 22.5471L52.9254 20.8635C52.3115 20.3445 51.4063 20.3698 50.8241 20.9205L49.7228 21.9521C48.7925 21.5028 47.8051 21.1863 46.786 21.0028L46.476 19.4837C46.3178 18.6989 45.5899 18.1546 44.7923 18.2179L42.191 18.4394C41.3935 18.509 40.7669 19.1609 40.7416 19.9648L40.691 21.5091C39.6909 21.8699 38.7479 22.3636 37.8871 22.9838L36.5707 22.1104C35.8997 21.6673 35.0073 21.7939 34.4884 22.4079L32.8048 24.4142C32.2857 25.0282 32.311 25.9333 32.8616 26.5155L34.0136 27.7434C33.6148 28.6421 33.33 29.5852 33.1655 30.5535L31.5199 30.889C30.735 31.0472 30.1907 31.7751 30.254 32.5726L30.4755 35.174C30.5452 35.9715 31.1971 36.598 32.0009 36.6234L33.7794 36.6803C34.1023 37.5284 34.5263 38.3323 35.0389 39.0854L34.0453 40.5854C33.6023 41.2563 33.7288 42.1487 34.3427 42.6677L36.3364 44.3513C36.9504 44.8703 37.8555 44.845 38.4378 44.2944L39.7416 43.0728C40.5961 43.4716 41.4948 43.769 42.4189 43.9463L42.7797 45.7311C42.9379 46.5159 43.6658 47.0602 44.4633 46.997L47.0646 46.7754C47.8621 46.7058 48.4887 46.054 48.514 45.2501L48.571 43.5031C49.5203 43.1677 50.419 42.712 51.2482 42.1487L52.685 43.0981C53.3559 43.5412 54.2482 43.4146 54.7673 42.8007L56.4509 40.8069C56.9698 40.193 56.9445 39.2879 56.3939 38.7056L55.2356 37.4778C55.6597 36.5791 55.9699 35.6297 56.147 34.6549L57.7293 34.3321C58.5142 34.1739 59.0585 33.446 58.9952 32.6485L58.7736 30.0471C58.704 29.2497 58.0521 28.6231 57.2483 28.5977L55.6597 28.5471C55.3305 27.623 54.8874 26.7497 54.3368 25.9395L55.2039 24.6356C55.6597 23.9649 55.5331 23.0661 54.9191 22.5471ZM45.1152 37.5853C42.305 37.8259 39.8238 35.7309 39.5897 32.9208C39.3491 30.1106 41.4442 27.6294 44.2543 27.3952C47.0645 27.1547 49.5457 29.2498 49.7798 32.0599C50.0204 34.8702 47.9252 37.3512 45.1152 37.5853Z" fill="#B5B3C2"/>
<path d="M12.975 44.5858C12.1775 44.668 11.5636 45.3389 11.5573 46.1428L11.5383 47.7441C11.5256 48.5479 12.1206 49.2314 12.9181 49.3328L14.0953 49.4846C14.2915 50.1999 14.57 50.8834 14.9308 51.529L14.1713 52.4657C13.6649 53.0923 13.7029 53.9911 14.2662 54.5671L15.3865 55.7127C15.9498 56.2886 16.8485 56.3519 17.4878 55.8582L18.4308 55.1304C19.0954 55.5228 19.798 55.833 20.5321 56.0481L20.6587 57.2633C20.741 58.0608 21.4119 58.6747 22.2157 58.6811L23.817 58.7001C24.6208 58.7127 25.3044 58.1178 25.4057 57.3203L25.5513 56.1684C26.3488 55.9721 27.1083 55.6747 27.8298 55.2823L28.7159 55.9975C29.3425 56.5038 30.2413 56.4658 30.8173 55.9025L31.9629 54.7823C32.5388 54.219 32.6021 53.3202 32.1085 52.6809L31.4311 51.8011C31.8489 51.1049 32.1717 50.3644 32.3932 49.5859L33.4439 49.4783C34.2414 49.396 34.8553 48.7251 34.8617 47.9213L34.8806 46.3199C34.8933 45.5162 34.2984 44.8325 33.5009 44.7313L32.4755 44.5984C32.2793 43.8262 31.9882 43.0793 31.6084 42.3831L32.2477 41.5983C32.754 40.9717 32.716 40.0729 32.1527 39.497L31.0325 38.3514C30.4692 37.7754 29.5703 37.7121 28.9311 38.2058L28.1652 38.7944C27.4438 38.3577 26.6715 38.0223 25.8615 37.7944L25.7601 36.8007C25.6778 36.0032 25.007 35.3893 24.2031 35.383L22.6018 35.364C21.798 35.3513 21.1144 35.9463 21.0131 36.7437L20.8865 37.7312C20.0511 37.9463 19.2473 38.2755 18.5005 38.7058L17.7093 38.0602C17.0827 37.5539 16.1839 37.5919 15.6079 38.1552L14.456 39.2818C13.88 39.8451 13.8168 40.7439 14.3104 41.3831L14.9877 42.2566C14.5953 42.9528 14.2851 43.6933 14.0826 44.4718L12.975 44.5858ZM23.3107 42.7755C25.6082 42.8008 27.45 44.6934 27.4247 46.9909C27.3994 49.2884 25.5069 51.1301 23.2094 51.1049C20.9118 51.0796 19.0701 49.1871 19.0954 46.8895C19.1207 44.5921 21.0132 42.7503 23.3107 42.7755Z" fill="#B5B3C2"/>
</g>
<defs>
<clipPath id="clip0_39_778">
<rect width="59" height="59" fill="white"/>
</clipPath>
</defs>
</svg>
