<svg width="59" height="59" viewBox="0 0 59 59" fill="none" xmlns="http://www.w3.org/2000/svg">
<path d="M40.2306 55.9343C39.8219 55.6618 39.7537 55.253 39.7537 54.7761C39.7537 53.2773 39.7537 51.7784 39.7537 50.1433C39.4812 50.2796 39.2768 50.4159 39.0724 50.5521C37.8461 51.5059 36.211 51.5741 34.9847 50.6884C33.7583 49.8027 33.2814 48.3038 33.7583 46.8731C34.2352 45.4424 35.5978 44.4886 37.0967 44.5567C37.8461 44.5567 38.5274 44.8293 39.1406 45.3062C39.2768 45.4424 39.4812 45.4424 39.6175 45.5105C39.6856 45.3062 39.7537 45.1699 39.7537 44.9655C39.7537 43.6029 39.7537 42.2403 39.7537 40.8096C39.7537 39.9921 39.9581 39.7877 40.7757 39.7877C42.2064 39.7877 43.6371 39.7877 45.0678 39.7877C45.8854 39.7877 46.4985 39.9921 46.8392 40.7415C47.1798 41.4909 47.0436 42.2403 46.4985 42.8535C45.9535 43.4667 45.8172 44.148 46.1579 44.8293C46.4985 45.5105 47.0436 45.9193 47.8611 45.8512C48.6105 45.8512 49.1556 45.4424 49.4962 44.7611C49.8369 44.0117 49.7006 43.3304 49.1556 42.7172C48.4743 41.9678 48.4743 40.8778 49.1556 40.2646C49.4281 39.9921 49.905 39.7877 50.3138 39.7196C51.8807 39.6514 53.4477 39.6514 55.0828 39.7196C55.3553 39.7196 55.696 39.9921 55.9685 40.1283C55.9685 44.8974 55.9685 49.5983 55.9685 54.3674C55.696 55.1168 55.2191 55.5937 54.5378 55.7981C49.7687 55.9343 44.9997 55.9343 40.2306 55.9343ZM54.4015 41.3547C53.1071 41.3547 51.8807 41.3547 50.6544 41.3547C50.5182 41.3547 50.3819 41.4228 50.2456 41.4909C50.3138 41.6272 50.3138 41.8316 50.45 41.8997C51.1994 42.7854 51.4038 43.8073 51.1313 44.9655C50.7907 46.3281 49.6325 47.2819 48.338 47.4863C46.9754 47.6226 45.6128 47.0094 44.9316 45.7831C44.2503 44.5567 44.3865 43.126 45.2722 42.036C45.4085 41.8997 45.4766 41.6953 45.6128 41.4228C44.114 41.4228 42.7514 41.4228 41.3888 41.4228C41.3888 41.6953 41.3888 41.8997 41.3888 42.1041C41.3888 43.1941 41.3888 44.2842 41.3888 45.3743C41.3888 46.5325 40.435 47.35 39.3449 47.0775C38.9362 47.0094 38.5274 46.6687 38.1867 46.4644C37.4373 45.9193 36.4154 45.9875 35.7341 46.6687C35.0528 47.35 35.0528 48.4401 35.7341 49.1214C36.3473 49.8027 37.4373 49.939 38.1867 49.3258C38.7999 48.7808 39.5493 48.6445 40.2988 48.6445C41.1844 48.6445 41.3888 48.8489 41.3888 49.8027C41.3888 51.1653 41.3888 52.4597 41.3888 53.8223C41.3888 54.0267 41.3888 54.163 41.3888 54.3674C41.5932 54.3674 41.7976 54.3674 41.9339 54.3674C45.8854 54.3674 49.7687 54.3674 53.7202 54.3674C54.4015 54.3674 54.4015 54.3674 54.4015 53.6861C54.4015 49.7346 54.4015 45.8512 54.4015 41.8997C54.4015 41.7634 54.4015 41.6272 54.4015 41.3547Z" fill="#B5B3C2"/>
<path d="M55.9008 18.8038C55.6283 19.2126 55.2195 19.2807 54.7426 19.2807C53.4481 19.2807 52.1537 19.2807 50.8592 19.2807C50.6548 19.2807 50.4504 19.3488 50.2461 19.417C50.3142 19.6214 50.3823 19.7576 50.5186 19.962C51.3361 21.0521 51.4724 22.4828 50.8592 23.7091C50.1779 24.8673 48.8835 25.6167 47.5209 25.4123C46.0902 25.208 45.1364 24.4585 44.6595 23.0959C44.2507 21.9378 44.5232 20.8477 45.2726 19.8939C45.3407 19.7576 45.4089 19.6214 45.477 19.4851C45.3407 19.417 45.1364 19.3488 45.0001 19.3488C43.6375 19.3488 42.2068 19.3488 40.8442 19.3488C40.0267 19.3488 39.8223 19.1444 39.8223 18.3269C39.8223 16.8962 39.8223 15.4655 39.8223 13.9666C39.8223 13.1491 40.0948 12.5359 40.8442 12.1953C41.5936 11.8546 42.2749 11.9909 42.8881 12.5359C43.5013 13.0809 44.1826 13.2172 44.8638 12.8766C45.5451 12.604 45.8858 12.059 45.9539 11.3096C46.022 10.5602 45.6814 9.94699 44.932 9.60634C44.2507 9.2657 43.5013 9.33383 42.8881 9.87886C42.4112 10.2876 41.8662 10.5602 41.1849 10.4239C40.4354 10.2876 39.8223 9.67447 39.8223 8.92505C39.7541 7.28995 39.8223 5.58671 39.8223 3.95161C39.8223 3.47471 40.0948 3.20219 40.5717 3.20219C42.6837 3.20219 44.7957 3.20219 46.9077 3.20219C47.3846 3.20219 47.6571 3.54283 47.6571 4.01974C47.6571 4.42852 47.3165 4.76916 46.8396 4.76916C45.2045 4.76916 43.5694 4.76916 41.9343 4.76916C41.7299 4.76916 41.5936 4.76916 41.3892 4.76916C41.3892 6.19988 41.3892 7.49434 41.3892 9.06131C41.6618 8.92505 41.8662 8.78879 42.0024 8.65253C43.0925 7.83498 44.5232 7.69872 45.7495 8.31189C46.9758 8.99318 47.6571 10.2876 47.4528 11.6502C47.2484 13.0809 46.4308 14.0347 45.1364 14.4435C43.9782 14.8523 42.9562 14.5798 42.0024 13.8304C41.8662 13.6941 41.6618 13.626 41.4574 13.4897C41.4574 14.9886 41.4574 16.283 41.4574 17.7137C41.5936 17.7137 41.798 17.7137 42.0024 17.7137C43.0244 17.7137 44.0463 17.7137 45.0682 17.7137C45.8858 17.7137 46.5671 17.9181 46.9759 18.7357C47.3165 19.5532 47.1802 20.2345 46.5671 20.8477C46.022 21.3927 45.9539 22.074 46.2946 22.8234C46.6352 23.5047 47.1802 23.8454 47.9297 23.9135C48.6791 23.9135 49.2241 23.5729 49.5648 22.9597C49.9054 22.2784 49.7692 21.529 49.2922 20.8477C49.0197 20.4389 48.8153 19.962 48.7472 19.4851C48.6791 18.4632 49.4285 17.7819 50.5186 17.7819C51.6086 17.7819 52.6987 17.7819 53.7888 17.7819C53.9932 17.7819 54.1294 17.7819 54.402 17.7819C54.402 17.5775 54.402 17.3731 54.402 17.2368C54.402 13.2853 54.402 9.40196 54.402 5.45046C54.402 4.76916 54.402 4.76916 53.7207 4.76916C52.6987 4.76916 51.7449 4.76916 50.723 4.76916C50.1098 4.76916 49.7692 4.42852 49.7692 3.95161C49.7692 3.47471 50.1098 3.20219 50.723 3.20219C51.7449 3.20219 52.6987 3.27032 53.7207 3.20219C54.8107 3.13406 55.6283 3.61096 55.9689 4.6329C55.9008 9.33383 55.9008 14.1029 55.9008 18.8038Z" fill="#B5B3C2"/>
<path d="M10.0498 55.9342C9.641 55.7298 9.43661 55.3892 9.57287 54.9123C9.70913 54.4354 10.1179 54.3672 10.5948 54.3672C12.775 54.3672 14.9551 54.3672 17.1352 54.3672C17.3396 54.3672 17.4759 54.3672 17.6803 54.3672C17.6803 52.9365 17.6803 51.6421 17.6803 50.0751C17.4077 50.2113 17.2034 50.3476 17.0671 50.4839C15.9089 51.3695 14.6826 51.5058 13.3881 50.8245C12.0937 50.1432 11.4805 48.985 11.6168 47.4862C11.753 46.0554 12.5706 45.1016 13.9331 44.6247C15.0913 44.216 16.1133 44.4885 17.0671 45.1698C17.2034 45.306 17.4077 45.3742 17.6803 45.5785C17.6803 44.0797 17.6803 42.7171 17.6803 41.2864C17.4077 41.2864 17.1352 41.2864 16.8627 41.2864C15.9089 41.2864 15.0232 41.2864 14.0694 41.2864C13.2519 41.2864 12.5706 41.082 12.1618 40.2645C11.8211 39.4469 11.9574 38.7656 12.5706 38.1524C13.1156 37.6074 13.1837 36.9261 12.8431 36.1767C12.5024 35.4954 11.9574 35.1548 11.208 35.0866C10.4586 35.0866 9.91352 35.4273 9.57287 36.0404C9.23223 36.7217 9.30035 37.5393 9.84539 38.1524C10.3223 38.6975 10.4586 39.2425 10.3223 39.9238C10.1179 40.7414 9.43661 41.2183 8.4828 41.2183C7.3246 41.2183 6.16641 41.2183 5.00821 41.2183C4.87195 41.2183 4.80382 41.2183 4.59943 41.2183C4.59943 41.4227 4.59943 41.5589 4.59943 41.7633C4.59943 45.7148 4.59943 49.6663 4.59943 53.5497C4.59943 54.231 4.59943 54.231 5.28072 54.231C5.62137 54.231 5.96202 54.231 6.30266 54.231C6.71144 54.231 7.12022 54.231 7.3246 54.7079C7.52899 55.1848 7.18835 55.4573 6.91583 55.7298C6.09828 55.7298 5.34885 55.7298 4.5313 55.7298C3.44123 55.3892 3.10059 54.5716 3.10059 53.4815C3.10059 49.2575 3.10059 44.9654 3.10059 40.7414C3.10059 39.8557 3.30497 39.5832 4.19066 39.5832C5.55324 39.5832 6.91583 39.5832 8.27841 39.5832C8.4828 39.5832 8.61906 39.515 8.82345 39.4469C8.75532 39.3106 8.68719 39.1063 8.61906 38.97C7.66525 37.7437 7.59712 36.1086 8.41467 34.8822C9.23223 33.6559 10.7992 33.1109 12.2299 33.5878C13.6606 34.0647 14.6144 35.4273 14.5463 36.9261C14.5463 37.6755 14.2738 38.3568 13.7969 38.9019C13.6606 39.0381 13.5925 39.2425 13.5244 39.4469C13.7288 39.515 13.9331 39.5832 14.1375 39.5832C15.5001 39.5832 16.8627 39.5832 18.2934 39.5832C19.0428 39.5832 19.2472 39.7875 19.3154 40.6051C19.3154 42.0358 19.3154 43.4665 19.3154 44.9654C19.3154 45.7829 19.0428 46.3961 18.3616 46.7367C17.6121 47.0774 16.9308 46.9411 16.2495 46.3961C15.432 45.7148 14.4101 45.7148 13.7288 46.3961C13.0475 47.0774 12.9793 48.0993 13.5925 48.8488C14.2738 49.6663 15.432 49.8026 16.3177 49.0531C16.7946 48.6444 17.3396 48.44 17.9528 48.5762C18.7022 48.7125 19.3154 49.3257 19.3154 50.0751C19.3835 51.7102 19.3835 53.4134 19.3154 55.0485C19.3154 55.321 19.0428 55.5254 18.9066 55.7979C15.9089 55.9342 12.9793 55.9342 10.0498 55.9342Z" fill="#B5B3C2"/>
<path d="M41.3212 25.4123C41.3212 26.298 40.9805 26.843 40.3674 27.1837C39.8905 27.4562 39.4136 27.7287 38.9367 28.0012C38.6641 28.1375 38.5279 28.3419 38.596 28.6825C38.596 29.2276 38.596 29.8407 38.596 30.3858C38.596 30.7264 38.6641 30.9308 38.9367 31.0671C39.4136 31.3396 39.8905 31.6121 40.2992 31.8846C41.2531 32.4978 41.5256 33.5197 40.9805 34.5417C40.5036 35.4273 39.9586 36.313 39.4817 37.1987C38.9367 38.1525 37.9147 38.425 36.9609 37.88C36.484 37.6075 36.0071 37.335 35.5302 37.0624C35.3258 36.9943 35.0533 36.9943 34.8489 37.0624C34.3039 37.335 33.7588 37.6075 33.2819 37.9481C33.0775 38.0844 32.9413 38.3569 32.9413 38.5613C32.8731 39.1063 32.9413 39.6514 32.9413 40.1283C32.9413 41.2183 32.1919 41.9678 31.1018 42.0359C30.0117 42.104 28.9898 42.104 27.8997 42.0359C26.8096 41.9678 26.1283 41.2183 26.1283 40.1283C26.1283 39.5832 26.1283 39.0382 26.1283 38.5613C26.1283 38.3569 25.924 38.0844 25.7877 37.9481C25.3108 37.6075 24.7658 37.4031 24.2888 37.0624C24.0163 36.8581 23.8119 36.8581 23.5394 37.0624C23.1306 37.335 22.6537 37.6075 22.1768 37.8119C21.1549 38.3569 20.133 38.0844 19.5198 37.1306C19.0429 36.313 18.4979 35.4273 18.021 34.6098C17.4759 33.5878 17.7484 32.4978 18.7704 31.9527C19.1791 31.6802 19.6561 31.4758 20.0648 31.2033C20.3373 31.0671 20.4736 30.8627 20.4736 30.522C20.4055 29.977 20.4736 29.3638 20.4736 28.8188C20.4736 28.6144 20.3373 28.3419 20.133 28.2056C19.6561 27.865 19.1791 27.6606 18.7022 27.3881C17.7484 26.843 17.4759 25.753 18.021 24.7992C18.4979 23.9135 19.0429 23.0278 19.5198 22.1421C20.0648 21.1883 21.1549 20.9158 22.1087 21.4608C22.5856 21.7333 23.0625 22.0059 23.5394 22.2784C23.7438 22.3465 24.0163 22.3465 24.2207 22.2784C24.6976 22.0059 25.1745 21.7333 25.7196 21.4608C25.9921 21.3246 26.1965 21.1202 26.1283 20.7795C26.1283 20.2345 26.1283 19.7576 26.1283 19.2126C26.1283 18.1225 26.8778 17.3049 27.9678 17.3049C28.9898 17.3049 30.0798 17.2368 31.1018 17.3049C32.1919 17.3731 32.9413 18.1225 32.9413 19.2126C32.9413 19.7576 32.9413 20.3026 32.9413 20.7795C32.9413 21.1202 33.0775 21.2564 33.35 21.3927C33.8951 21.6652 34.372 22.0059 34.8489 22.2784C35.0533 22.3465 35.3258 22.4146 35.5302 22.2784C36.0071 22.074 36.484 21.7333 36.8928 21.529C37.9147 20.9839 38.9367 21.2564 39.5498 22.2102C40.0949 23.0959 40.5718 23.9135 41.0487 24.7992C41.1849 24.8673 41.2531 25.2079 41.3212 25.4123ZM27.6953 39.0382C27.6953 39.3788 27.6953 39.6514 27.6953 39.992C27.6953 40.3326 27.8316 40.4689 28.1722 40.4689C29.0579 40.4689 30.0117 40.4689 30.8974 40.4689C31.3062 40.4689 31.4424 40.2645 31.3743 39.9239C31.3743 39.3788 31.3743 38.8338 31.3743 38.3569C31.3743 37.5393 31.7831 36.9262 32.4644 36.5855C33.0094 36.313 33.5544 35.9724 34.0995 35.6317C34.7808 35.2229 35.4621 35.1548 36.1434 35.5636C36.6203 35.8361 37.0972 36.1086 37.5741 36.3811C37.9147 36.5855 38.1191 36.5174 38.3235 36.1768C38.8004 35.3592 39.2092 34.6098 39.6861 33.7922C39.8905 33.4516 39.8223 33.2472 39.4817 33.1109C39.0048 32.8384 38.5279 32.5659 38.1191 32.2934C37.3697 31.8846 37.0972 31.2033 37.0972 30.3858C37.0972 29.7726 37.0972 29.2276 37.0972 28.6144C37.029 27.7969 37.3697 27.1156 38.1191 26.7068C38.596 26.4343 39.0048 26.1618 39.4817 25.9574C39.8223 25.753 39.9586 25.5486 39.6861 25.2079C39.2092 24.4585 38.8004 23.641 38.3235 22.8915C38.1191 22.5509 37.9147 22.5509 37.5741 22.6872C37.0972 22.9597 36.6203 23.2322 36.1434 23.5047C35.4621 23.9135 34.7808 23.8454 34.0995 23.4366C33.5544 23.0959 33.0094 22.8234 32.4644 22.4828C31.7149 22.074 31.3743 21.529 31.3743 20.7114C31.3743 20.1664 31.3743 19.6213 31.3743 19.1444C31.3743 18.8038 31.238 18.5994 30.8974 18.5994C30.0117 18.5994 29.0579 18.5994 28.1722 18.5994C27.7634 18.5994 27.6272 18.8038 27.6953 19.1444C27.6953 19.6895 27.6953 20.2345 27.6953 20.7114C27.6953 21.529 27.2865 22.1421 26.6052 22.4828C26.0602 22.7553 25.5152 23.0959 24.9701 23.4366C24.2888 23.8454 23.6076 23.9135 22.8581 23.5047C22.3812 23.2322 21.9043 22.9597 21.4955 22.6872C21.1549 22.4828 20.9505 22.5509 20.7461 22.8915C20.2692 23.7091 19.8604 24.4585 19.3835 25.2761C19.1791 25.6167 19.2473 25.8211 19.5879 25.9574C20.0648 26.2299 20.5417 26.5024 20.9505 26.7749C21.6999 27.1837 21.9725 27.865 21.9725 28.6825C21.9725 29.2957 21.9725 29.8407 21.9725 30.4539C22.0406 31.2714 21.6999 31.9527 20.9505 32.3615C20.4736 32.634 20.0648 32.9066 19.5879 33.1791C19.2473 33.3835 19.1791 33.5878 19.3835 33.8604C19.8604 34.6098 20.2692 35.4273 20.7461 36.2449C20.9505 36.5855 21.1549 36.5855 21.4955 36.4493C21.9725 36.1768 22.3812 35.9042 22.8581 35.6317C23.6076 35.2229 24.2888 35.2911 24.9701 35.6999C25.447 36.0405 25.9921 36.313 26.5371 36.5855C27.2865 36.9943 27.6272 37.5393 27.6272 38.3569C27.6953 38.5613 27.6953 38.7657 27.6953 39.0382Z" fill="#B5B3C2"/>
<path d="M3.10036 11.5821C3.10036 9.40194 3.10036 7.28994 3.10036 5.1098C3.10036 3.81534 3.84978 3.06592 5.14424 3.06592C9.50451 3.06592 13.8648 3.06592 18.1569 3.06592C18.9745 3.06592 19.247 3.27031 19.247 4.15599C19.247 5.51857 19.247 6.81303 19.247 8.17562C19.247 8.38001 19.3151 8.58439 19.3833 8.78878C19.5877 8.72065 19.7239 8.65252 19.9283 8.51626C21.0865 7.56245 22.7897 7.56245 24.0161 8.44813C25.2424 9.33382 25.7193 10.9008 25.2424 12.3315C24.6974 13.7622 23.3348 14.6479 21.8359 14.5116C21.0865 14.4435 20.4733 14.171 19.8602 13.6941C19.7239 13.626 19.5877 13.5578 19.3833 13.4897C19.3151 13.626 19.247 13.7622 19.247 13.8985C19.247 15.2611 19.247 16.6918 19.247 18.0544C19.247 18.9401 19.0426 19.1444 18.2251 19.1444C16.7943 19.1444 15.3636 19.1444 13.9329 19.1444C13.1154 19.1444 12.5022 18.8719 12.1616 18.1225C11.8209 17.3731 11.9572 16.6918 12.5022 16.0786C13.2516 15.2611 13.1835 14.171 12.4341 13.4897C11.7528 12.8084 10.5946 12.8084 9.91329 13.4897C9.16387 14.171 9.16387 15.2611 9.84516 16.0786C10.3902 16.6918 10.5265 17.3731 10.1858 18.1225C9.84516 18.8719 9.23199 19.1444 8.41444 19.1444C6.98373 19.1444 5.55301 19.1444 4.05417 19.1444C3.30474 19.1444 3.03223 18.8719 3.03223 18.1225C3.10036 16.0105 3.10036 13.8304 3.10036 11.5821ZM17.68 4.70102C17.4756 4.70102 17.3394 4.70102 17.2031 4.70102C13.1835 4.70102 9.232 4.70102 5.21236 4.70102C4.73546 4.70102 4.66733 4.90541 4.66733 5.31419C4.66733 9.26569 4.66733 13.2853 4.66733 17.2368C4.66733 17.3731 4.66733 17.5093 4.66733 17.6456C6.02992 17.6456 7.3925 17.6456 8.89135 17.6456C8.75509 17.3731 8.68696 17.2368 8.5507 17.1006C7.86941 16.2149 7.59689 15.1929 7.86941 14.1029C8.21006 12.7403 9.36825 11.7865 10.6627 11.5821C12.0253 11.4458 13.3879 12.059 14.0692 13.2853C14.7505 14.5116 14.6142 15.9424 13.7285 17.0324C13.5923 17.1687 13.5241 17.3731 13.3879 17.6456C14.8867 17.6456 16.2493 17.6456 17.68 17.6456C17.68 17.4412 17.68 17.2368 17.68 17.0324C17.68 15.9424 17.68 14.8523 17.68 13.7622C17.68 12.604 18.5657 11.7865 19.7239 11.9909C20.1327 12.059 20.5415 12.3315 20.8821 12.604C21.5634 13.0809 22.381 13.0809 23.0622 12.6722C23.6754 12.2634 23.9479 11.4458 23.8117 10.6964C23.6073 9.87885 22.926 9.40195 22.1084 9.33382C21.5634 9.33382 21.0865 9.5382 20.6777 9.87885C20.0646 10.4239 19.3833 10.492 18.702 10.1514C18.0207 9.87885 17.68 9.26569 17.68 8.51626C17.68 7.49432 17.68 6.54051 17.68 5.51857C17.68 5.38231 17.68 5.04167 17.68 4.70102Z" fill="#B5B3C2"/>
<path d="M32.6002 10.5601C32.8727 10.5601 33.1452 10.5601 33.3496 10.5601C33.8265 10.5601 34.0309 10.8326 34.099 11.2414C34.1672 11.6501 33.8946 11.9908 33.4859 12.0589C32.8727 12.127 32.2595 12.127 31.6464 12.0589C31.2376 11.9908 31.0332 11.6501 31.0332 11.2414C31.1013 10.8326 31.3057 10.6282 31.7826 10.5601C32.0551 10.5601 32.3277 10.5601 32.6002 10.5601Z" fill="#B5B3C2"/>
<path d="M10.5264 26.5025C10.5264 26.23 10.5264 25.9575 10.5264 25.685C10.5264 25.2081 10.7989 25.0037 11.2758 24.9355C11.6846 24.9355 12.0252 25.1399 12.0252 25.5487C12.0933 26.1619 12.0933 26.8432 12.0252 27.4563C11.9571 27.8651 11.6164 28.0695 11.2077 28.0014C10.7989 27.9332 10.5264 27.7288 10.5264 27.3201C10.5264 27.0476 10.5264 26.775 10.5264 26.5025Z" fill="#B5B3C2"/>
<path d="M48.5431 32.5659C48.5431 32.8384 48.5431 33.1109 48.5431 33.3835C48.5431 33.8604 48.2706 34.0648 47.8618 34.1329C47.453 34.1329 47.1124 33.9285 47.0443 33.5197C46.9761 32.9066 46.9761 32.2934 47.0443 31.7484C47.1124 31.3396 47.3849 31.0671 47.8618 31.1352C48.2706 31.1352 48.5431 31.4077 48.5431 31.8846C48.5431 32.089 48.5431 32.3615 48.5431 32.5659Z" fill="#B5B3C2"/>
<path d="M26.4683 48.5082C26.1957 48.5082 25.9232 48.5082 25.7188 48.5082C25.2419 48.5082 25.0375 48.2357 24.9694 47.8269C24.9013 47.4181 25.1738 47.0775 25.5826 47.0093C26.1957 46.9412 26.8089 46.9412 27.3539 47.0093C27.7627 47.0775 28.0352 47.35 27.9671 47.8269C27.9671 48.2357 27.6946 48.5082 27.2177 48.5082C27.0133 48.5763 26.7408 48.5082 26.4683 48.5082Z" fill="#B5B3C2"/>
<path d="M48.5424 28.1375C48.5424 28.2056 48.5424 28.3419 48.5424 28.4781C48.4742 28.955 47.9292 29.2276 47.4523 29.0232C46.9073 28.7507 46.9754 28.2738 46.9754 27.7968C46.9754 27.3881 47.1116 27.1156 47.5204 26.9793C48.1336 26.843 48.5424 27.2518 48.5424 28.1375Z" fill="#B5B3C2"/>
<path d="M28.0359 10.5601C28.1722 10.5601 28.3766 10.5601 28.5128 10.5601C28.9897 10.6282 29.2623 11.1732 29.0579 11.6501C28.8535 12.127 28.3766 12.127 27.9678 12.127C27.559 12.127 27.2184 12.0589 27.014 11.6501C26.8096 11.037 27.2184 10.5601 28.0359 10.5601Z" fill="#B5B3C2"/>
<path d="M37.1647 10.5602C37.5734 10.4921 37.9822 10.5602 38.1185 11.0371C38.1866 11.3096 38.0503 11.6503 37.9141 11.9228C37.6416 12.2634 36.6878 12.2634 36.4152 11.9228C36.2109 11.7184 36.0746 11.3096 36.1427 11.0371C36.2109 10.5602 36.6878 10.5602 37.1647 10.5602Z" fill="#B5B3C2"/>
<path d="M12.2301 21.9377C12.0257 22.3465 11.8895 22.6871 11.617 22.8915C11.2763 23.164 10.9357 23.0278 10.6631 22.6871C10.3906 22.4146 10.4588 21.3927 10.6631 21.1201C10.9357 20.7795 11.3444 20.7114 11.617 20.9157C11.8895 21.1883 12.0257 21.5289 12.2301 21.9377Z" fill="#B5B3C2"/>
<path d="M10.5264 30.9309C10.5264 30.5221 10.5264 30.1134 11.0714 29.9771C11.3439 29.909 11.6846 30.0452 11.889 30.1815C12.1615 30.3859 12.2296 31.4078 11.9571 31.6803C11.7527 31.8847 11.412 32.021 11.2077 32.021C10.7308 32.021 10.5264 31.6803 10.5264 30.9309Z" fill="#B5B3C2"/>
<path d="M48.543 37.2668C48.543 37.3349 48.543 37.4712 48.543 37.6756C48.4749 38.0844 47.998 38.2888 47.5892 38.2206C47.1804 38.0844 46.976 37.6756 47.0442 36.9943C47.0442 36.5174 47.2485 36.2449 47.7255 36.1767C48.2024 35.9724 48.543 36.3811 48.543 37.2668Z" fill="#B5B3C2"/>
<path d="M21.9037 48.5082C21.7675 48.5082 21.6312 48.5082 21.495 48.5082C21.0181 48.44 20.6774 47.9631 20.8818 47.4862C21.0862 46.9412 21.5631 47.0093 22.04 47.0093C22.4488 47.0093 22.7894 47.1456 22.9257 47.5543C23.1301 48.1675 22.7213 48.5082 21.9037 48.5082Z" fill="#B5B3C2"/>
<path d="M30.9653 48.5081C30.284 48.5081 29.9434 48.2356 29.9434 47.6906C29.9434 47.2137 30.284 46.9412 31.0334 46.9412C31.7147 46.9412 32.1235 47.2137 32.1235 47.6906C32.1235 48.3038 31.7147 48.5081 30.9653 48.5081Z" fill="#B5B3C2"/>
<path d="M29.5344 23.5728C32.8047 23.5728 35.5298 26.2979 35.5298 29.5681C35.5298 32.8383 32.8047 35.5635 29.5344 35.5635C26.2642 35.5635 23.5391 32.8383 23.5391 29.5681C23.5391 26.2298 26.2642 23.5728 29.5344 23.5728ZM33.9629 29.5681C33.9629 27.1155 31.9871 25.1397 29.5344 25.1397C27.0818 25.1397 25.106 27.1155 25.0379 29.5C25.0379 31.9527 27.0137 33.9965 29.4663 33.9965C31.919 33.9965 33.9629 32.0208 33.9629 29.5681Z" fill="#B5B3C2"/>
<path d="M32.3278 29.5682C32.3278 31.0671 31.0334 32.3615 29.5345 32.3615C28.0357 32.3615 26.7412 31.0671 26.7412 29.5682C26.7412 28.0694 28.0357 26.7749 29.5345 26.7749C31.1015 26.7749 32.3278 28.0012 32.3278 29.5682ZM30.7608 29.5682C30.7608 28.8869 30.2158 28.3419 29.5345 28.3419C28.8532 28.3419 28.3082 28.8869 28.3082 29.5682C28.3082 30.2495 28.8532 30.8627 29.5345 30.8627C30.1477 30.7945 30.7608 30.2495 30.7608 29.5682Z" fill="#B5B3C2"/>
</svg>
