<svg width="59" height="59" viewBox="0 0 59 59" fill="none" xmlns="http://www.w3.org/2000/svg">
<path fill-rule="evenodd" clip-rule="evenodd" d="M27.0413 2.45825V7.37496H31.958V2.45825H27.0413ZM36.8746 41.7917V44.25H46.708V41.7917H36.8746ZM31.958 41.7917V44.25H34.4163V41.7917H31.958ZM36.8746 34.4167V36.875H46.708V34.4167H36.8746ZM31.958 34.4167V36.875H34.4163V34.4167H31.958ZM12.2913 19.6667V22.125H46.708V19.6667H12.2913ZM36.8746 27.0417V29.5H46.708V27.0417H36.8746ZM31.958 27.0417V29.5H34.4163V27.0417H31.958ZM3.88138 7.37496C3.88138 7.37496 2.45801 7.37496 2.45801 8.60416C2.45801 9.83337 3.88138 9.83337 3.88138 9.83337H55.118C55.118 9.83337 56.5414 9.83337 56.5414 8.60416C56.5414 7.37496 55.118 7.37496 55.118 7.37496H3.88138ZM3.88138 54.0832C3.88138 54.0832 2.45801 54.0832 2.45801 55.3125C2.45801 56.5417 3.88138 56.5417 3.88138 56.5417H55.118C55.118 56.5417 56.5414 56.5417 56.5414 55.3125C56.5414 54.0832 55.118 54.0832 55.118 54.0832H3.88138ZM19.6663 44.25C23.7397 44.25 27.0413 40.9484 27.0413 36.875H19.6663V29.5C15.5929 29.5 12.2913 32.8014 12.2913 36.875C12.2913 40.9484 15.5929 44.25 19.6663 44.25ZM10.3247 14.75C10.3247 14.75 7.3746 14.75 7.3746 17.6188V46.2978C7.3746 49.1667 10.3247 49.1667 10.3247 49.1667H48.6747C48.6747 49.1667 51.6247 49.1667 51.6247 46.2978V17.6188C51.6247 14.75 48.6747 14.75 48.6747 14.75H10.3247ZM10.7008 12.2917C10.7008 12.2917 4.9163 12.2917 4.9163 17.9114V46.0052C4.9163 51.625 10.7008 51.625 10.7008 51.625H48.2985C48.2985 51.625 54.083 51.625 54.083 46.0051V17.9113C54.083 12.2915 48.2985 12.2915 48.2985 12.2915L10.7008 12.2917Z" fill="#A09FB4"/>
</svg>
