<svg width="70" height="70" viewBox="0 0 70 70" fill="none" xmlns="http://www.w3.org/2000/svg">
<g clip-path="url(#clip0_19_834)">
<path d="M70 0H0V70H70V0Z" fill="#FBB03B"/>
<path d="M64.1667 14.3645C63.875 14.2187 57.0208 11.2291 49.2188 11.2291C42.5833 11.2291 36.8229 13.3437 34.9271 14.1458C33.1042 13.4166 27.2708 11.2291 20.6354 11.2291C12.8333 11.2291 5.97917 14.2916 5.6875 14.3645C5.17708 14.5833 4.8125 15.0937 4.8125 15.677V55.052C4.8125 55.5625 5.03125 56 5.46875 56.2916C5.6875 56.4375 5.97917 56.5104 6.27083 56.5104C6.48958 56.5104 6.63542 56.4375 6.85417 56.3645C6.92708 56.3645 13.7812 53.4479 20.7083 53.4479C27.5625 53.4479 34.2708 56.2916 34.3437 56.3645H34.4167C34.4896 56.3645 34.5625 56.3645 34.5625 56.4375C34.6354 56.4375 34.7083 56.4375 34.7083 56.5104C34.7812 56.5104 34.8542 56.5104 34.8542 56.5104C34.9271 56.5104 35 56.5104 35 56.5104C35.0729 56.5104 35.1458 56.5104 35.1458 56.4375C35.2188 56.4375 35.2917 56.4375 35.2917 56.3645H35.3646C35.4375 56.3645 42.1458 53.4479 49 53.4479C55.8542 53.4479 62.7812 56.3645 62.8542 56.3645C63.0729 56.4375 63.2187 56.5104 63.4375 56.5104C63.7292 56.5104 64.0208 56.4375 64.2396 56.2916C64.6771 56 64.8958 55.5625 64.8958 55.052V15.677C65.0417 15.0937 64.6771 14.5833 64.1667 14.3645ZM7.80208 52.9375V16.625C9.77083 15.8229 15.0208 14.0729 20.7083 14.0729C26.3958 14.0729 31.5 15.8229 33.5417 16.625V52.9375C30.8438 51.9895 25.9583 50.5312 20.7812 50.5312C15.5312 50.5312 10.5 51.9895 7.80208 52.9375ZM62.125 52.9375C59.4271 51.9895 54.3229 50.5312 49.1458 50.5312C43.9688 50.5312 39.0833 51.9895 36.3854 52.9375V16.625C38.3542 15.8229 43.5312 14.0729 49.2188 14.0729C54.9062 14.0729 60.0833 15.8229 62.125 16.625V52.9375Z" fill="white"/>
<path d="M12.25 25.0833C12.4687 25.0833 12.6875 25.0104 12.8333 24.9375C12.9062 24.9375 16.552 23.2604 20.7083 23.2604C24.7916 23.2604 28.3645 24.8645 28.5104 24.9375C29.2395 25.302 30.1145 24.9375 30.4062 24.2083C30.7708 23.4791 30.4062 22.6041 29.677 22.3125C29.5312 22.2395 25.4479 20.4166 20.7083 20.4166C15.9687 20.4166 11.8125 22.2395 11.6666 22.3125C10.9375 22.677 10.5729 23.4791 10.9375 24.2083C11.1562 24.7916 11.6666 25.0833 12.25 25.0833Z" fill="white"/>
<path d="M29.6041 30.625C29.4583 30.552 25.1562 28.7291 20.6354 28.7291C16.1145 28.7291 11.8124 30.552 11.5937 30.625C10.8645 30.9166 10.4999 31.7916 10.7916 32.5208C11.0833 33.25 11.9583 33.6145 12.6874 33.3229C12.7604 33.3229 16.6979 31.6458 20.5624 31.6458C24.427 31.6458 28.2916 33.3229 28.3645 33.3229C28.5833 33.3958 28.7291 33.4687 28.9479 33.4687C29.5312 33.4687 30.0416 33.1041 30.2604 32.5937C30.6979 31.7916 30.3333 30.9895 29.6041 30.625Z" fill="white"/>
<path d="M29.6041 38.9375C29.4583 38.8645 25.1562 37.0416 20.6354 37.0416C16.1145 37.0416 11.8124 38.8645 11.5937 38.9375C10.8645 39.2291 10.4999 40.1041 10.7916 40.8333C11.0833 41.5625 11.9583 41.927 12.6874 41.6354C12.7604 41.6354 16.6979 39.9583 20.5624 39.9583C24.427 39.9583 28.2916 41.6354 28.3645 41.6354C28.5833 41.7083 28.7291 41.7812 28.9479 41.7812C29.5312 41.7812 30.0416 41.4166 30.2604 40.9062C30.6979 40.177 30.3333 39.302 29.6041 38.9375Z" fill="white"/>
<path d="M39.521 24.2812C39.8855 25.0103 40.6876 25.3749 41.4168 25.0103C41.4897 25.0103 45.2085 23.3333 49.2918 23.3333C53.3751 23.3333 57.021 24.9374 57.0939 25.0103C57.3126 25.0833 57.4585 25.1562 57.6772 25.1562C58.2605 25.1562 58.771 24.8645 58.9897 24.2812C59.3543 23.552 58.9897 22.677 58.2605 22.3853C58.1147 22.3124 54.0314 20.4895 49.2918 20.4895C44.5522 20.4895 40.396 22.3124 40.2501 22.3853C39.521 22.677 39.1564 23.4791 39.521 24.2812Z" fill="white"/>
<path d="M58.2604 30.625C58.1145 30.552 53.8124 28.7291 49.2916 28.7291C44.7708 28.7291 40.4687 30.552 40.2499 30.625C39.5208 30.9166 39.1562 31.7916 39.4479 32.5208C39.7395 33.25 40.6145 33.6145 41.3437 33.3229C41.4166 33.3229 45.3541 31.6458 49.2187 31.6458C53.0833 31.6458 56.9479 33.3229 57.0208 33.3229C57.2395 33.3958 57.3854 33.4687 57.6041 33.4687C58.1874 33.4687 58.6979 33.1041 58.9166 32.5937C59.3541 31.7916 58.9895 30.9895 58.2604 30.625Z" fill="white"/>
<path d="M58.2604 38.9375C58.1145 38.8645 53.8124 37.0416 49.2916 37.0416C44.7708 37.0416 40.4687 38.8645 40.2499 38.9375C39.5208 39.2291 39.1562 40.1041 39.4479 40.8333C39.7395 41.5625 40.6145 41.927 41.3437 41.6354C41.4166 41.6354 45.3541 39.9583 49.2187 39.9583C53.0833 39.9583 56.9479 41.6354 57.0208 41.6354C57.2395 41.7083 57.3854 41.7812 57.6041 41.7812C58.1874 41.7812 58.6979 41.4166 58.9166 40.9062C59.3541 40.177 58.9895 39.302 58.2604 38.9375Z" fill="white"/>
</g>
<defs>
<clipPath id="clip0_19_834">
<rect width="70" height="70" fill="white"/>
</clipPath>
</defs>
</svg>
