<svg width="70" height="70" viewBox="0 0 70 70" fill="none" xmlns="http://www.w3.org/2000/svg">
<path d="M70 0H0V70H70V0Z" fill="#29ABE2"/>
<path d="M58.6249 33.7605C57.8228 33.7605 57.1666 33.1042 57.1666 32.3021V32.1563C57.1666 31.4271 57.677 30.8438 58.4062 30.698C61.7603 30.1875 64.1666 27.2709 64.1666 23.9167C64.1666 20.125 61.1041 16.9896 57.2395 16.9896C56.7291 16.9896 56.1457 17.0625 55.6353 17.2084C54.9062 17.3542 54.177 16.9896 53.9582 16.2605C52.7187 12.9063 49.5832 10.6459 46.0103 10.6459C41.4895 10.6459 37.7707 14.2188 37.552 18.7396C37.552 19.1771 37.3332 19.5417 37.0416 19.7605C36.7499 20.0521 36.3124 20.125 35.8749 20.0521C35.5832 19.9792 35.3645 19.9792 35.1457 19.9792C34.1249 19.9792 33.177 20.2709 32.302 20.7813C31.6457 21.2188 30.6978 21 30.2603 20.3438C29.8228 19.6875 30.0416 18.7396 30.6978 18.3021C31.9374 17.573 33.3228 17.1355 34.7082 17.0625C35.7291 11.8125 40.3957 7.80212 45.9374 7.80212C50.3124 7.80212 54.2499 10.3542 56.1457 14.2188C62.052 13.5625 67.0832 18.2292 67.0832 23.9896C67.0832 28.6563 63.8749 32.5209 59.427 33.5417C59.2082 33.6875 58.9166 33.7605 58.6249 33.7605Z" fill="white"/>
<path d="M55.7082 60.1563H14.5832C14.4373 60.1563 14.3644 60.1563 14.2186 60.0834C7.87484 59.6459 2.9165 54.3959 2.9165 48.0521C2.9165 43.6771 5.24984 39.6667 9.0415 37.5521C9.0415 37.4063 9.0415 37.2605 9.0415 37.1146C9.0415 27.9271 16.479 20.4896 25.6665 20.4896C31.6457 20.4896 37.1873 23.7709 40.104 28.948C41.4165 28.5105 42.729 28.2917 44.1144 28.2917C49.2186 28.2917 53.7394 31.3542 55.7082 35.948C61.9061 36.5313 66.7186 41.7084 66.7186 48.0521C66.7186 54.1771 62.1978 59.2813 56.1457 60.0834C55.9998 60.1563 55.854 60.1563 55.7082 60.1563ZM14.8019 57.2396H55.2707C55.3436 57.2396 55.4165 57.1667 55.4894 57.1667C60.229 56.7292 63.8019 52.7917 63.8019 47.9792C63.8748 43.0209 59.7915 38.8646 54.6873 38.8646C54.0311 38.8646 53.5207 38.4271 53.3019 37.8438C51.9894 33.9063 48.2707 31.2084 44.1144 31.2084C42.729 31.2084 41.3436 31.5 40.0311 32.1563C39.6665 32.3021 39.3019 32.3021 38.9373 32.2292C38.5728 32.0834 38.2811 31.7917 38.1353 31.5C35.8748 26.6146 30.9894 23.4792 25.6665 23.4792C18.0832 23.4792 11.9582 29.6042 11.9582 37.1875C11.9582 37.5521 11.9582 37.9167 12.0311 38.3542C12.104 38.9375 11.7394 39.5209 11.229 39.8125C7.94775 41.198 5.83317 44.4792 5.83317 48.0521C5.83317 52.9375 9.69775 57.0209 14.5832 57.2396C14.729 57.2396 14.729 57.2396 14.8019 57.2396Z" fill="white"/>
</svg>
