<svg width="59" height="59" viewBox="0 0 59 59" fill="none" xmlns="http://www.w3.org/2000/svg">
<rect width="59" height="59" fill="white"/>
<path d="M55.4601 35.4274L49.5601 39.9274V49.3H38.9401V35.2726L47.0573 29.0815C47.4586 28.7754 48.0144 28.6 48.583 28.6C49.7725 28.6 50.7401 29.338 50.7401 30.2452C50.7401 30.6781 50.51 31.103 50.1089 31.4089L45.1858 35.1637L46.8544 36.4363L51.7773 32.6816C52.6305 32.0308 53.1001 31.166 53.1001 30.2452C53.1001 28.9411 52.1444 27.8035 50.7401 27.2194V15.1C50.7401 14.1073 51.7985 13.3 53.1001 13.3C54.4017 13.3 55.4601 14.1073 55.4601 15.1V35.4274ZM53.1001 11.5C50.4971 11.5 48.3801 13.1146 48.3801 15.1V26.8036C47.2497 26.8414 46.1935 27.1951 45.3889 27.8089L36.5801 34.5274V51.1H51.9201V40.6726L57.8201 36.1726V15.1C57.8201 13.1146 55.7031 11.5 53.1001 11.5Z" fill="#A09FB4"/>
<path d="M20.0597 49.3H9.43969V39.9274L3.53969 35.4274V15.1C3.53969 14.1073 4.59812 13.3 5.89969 13.3C7.20126 13.3 8.25969 14.1073 8.25969 15.1V27.2194C6.85544 27.8035 5.89969 28.9411 5.89969 30.2452C5.89969 31.165 6.36939 32.0308 7.22247 32.6816L12.1454 36.4363L13.8139 35.1638L8.89094 31.409C8.4897 31.103 8.25969 30.6791 8.25969 30.2453C8.25969 29.3381 9.22731 28.6001 10.4168 28.6001C10.9843 28.6001 11.5413 28.7756 11.9425 29.0816L20.0597 35.2727V49.3ZM10.6197 26.8036V15.1C10.6197 13.1146 8.50272 11.5 5.89969 11.5C3.29666 11.5 1.17969 13.1146 1.17969 15.1V36.1726L7.07969 40.6726V51.1H22.4197V34.5274L13.6109 27.8089C12.8063 27.1942 11.7501 26.8414 10.6197 26.8036Z" fill="#A09FB4"/>
<path d="M20.0595 9.6999C20.7108 9.6999 21.2395 10.1031 21.2395 10.5999C21.2395 11.0967 20.7108 11.4999 20.0595 11.4999C19.4082 11.4999 18.8795 11.0967 18.8795 10.5999C18.8795 10.1031 19.4082 9.6999 20.0595 9.6999ZM23.5995 10.5999C23.5995 9.1113 22.0112 7.8999 20.0595 7.8999C18.1078 7.8999 16.5195 9.1113 16.5195 10.5999C16.5195 11.7717 17.5095 12.7617 18.8795 13.1343V15.4726L23.5995 19.0726V21.4H25.9595V18.3274L21.2395 14.7274V13.1343C22.6095 12.7617 23.5995 11.7717 23.5995 10.5999Z" fill="#A09FB4"/>
<path d="M29.5 9.6999C30.1513 9.6999 30.68 10.1031 30.68 10.5999C30.68 11.0967 30.1513 11.4999 29.5 11.4999C28.8487 11.4999 28.32 11.0967 28.32 10.5999C28.32 10.1031 28.8487 9.6999 29.5 9.6999ZM30.68 21.3999V13.1343C32.05 12.7618 33.04 11.7718 33.04 10.5999C33.04 9.1113 31.4517 7.8999 29.5 7.8999C27.5483 7.8999 25.96 9.1113 25.96 10.5999C25.96 11.7717 26.95 12.7617 28.32 13.1343V21.3999H30.68Z" fill="#A09FB4"/>
<path d="M38.94 9.6999C39.5913 9.6999 40.12 10.1031 40.12 10.5999C40.12 11.0967 39.5913 11.4999 38.94 11.4999C38.2887 11.4999 37.76 11.0967 37.76 10.5999C37.76 10.1031 38.2886 9.6999 38.94 9.6999ZM40.12 13.1343C41.49 12.7618 42.48 11.7718 42.48 10.5999C42.48 9.1113 40.8917 7.8999 38.94 7.8999C36.9883 7.8999 35.4 9.1113 35.4 10.5999C35.4 11.7717 36.39 12.7617 37.76 13.1343V14.7273L33.04 18.3273V21.3999H35.4V19.0725L40.12 15.4725V13.1343Z" fill="#A09FB4"/>
<path d="M40.1199 19.5999H37.7599V23.1999H21.2399V19.5999H18.8799V24.9999H40.1199V19.5999Z" fill="#A09FB4"/>
</svg>
