<svg width="59" height="59" viewBox="0 0 59 59" fill="none" xmlns="http://www.w3.org/2000/svg">
<g clip-path="url(#clip0_19_787)">
<mask id="mask0_19_787" style="mask-type:luminance" maskUnits="userSpaceOnUse" x="0" y="0" width="59" height="59">
<path d="M59 0H0V59H59V0Z" fill="white"/>
</mask>
<g mask="url(#mask0_19_787)">
<path d="M57.4518 45.5154L45.51 37.5516C43.9945 36.5491 41.9631 36.879 40.8428 38.3096L37.3642 42.7821C36.9172 43.3716 36.1046 43.5426 35.4579 43.1833L34.7962 42.8186C32.6027 41.6229 29.8734 40.1345 24.3744 34.6335C18.8754 29.1326 17.384 26.4012 16.1883 24.2118L15.8255 23.5501C15.4613 22.9035 15.6291 22.0874 16.2188 21.6368L20.6883 18.1593C22.1183 17.0388 22.4487 15.008 21.4473 13.4921L13.4835 1.55026C12.4573 0.00658274 10.3983 -0.456822 8.80959 0.498214L3.81596 3.4979C2.24693 4.42033 1.0958 5.91423 0.603931 7.66657C-1.19426 14.2185 0.158499 25.5262 16.8157 42.1853C30.0661 55.4347 39.9305 58.9978 46.7106 58.9978C48.2709 59.0045 49.8252 58.8015 51.3316 58.3942C53.0843 57.9029 54.5784 56.7517 55.5003 55.1822L58.5029 50.1915C59.4594 48.6025 58.9962 46.5423 57.4518 45.5154ZM56.8088 49.1827L53.813 54.1763C53.1511 55.3091 52.0765 56.142 50.8143 56.5006C44.7657 58.1612 34.1984 56.7858 18.2068 40.7942C2.21525 24.8026 0.839896 14.2363 2.50052 8.18678C2.85954 6.92307 3.69348 5.84706 4.82768 5.1841L9.82132 2.18834C10.5107 1.77355 11.4043 1.97461 11.8496 2.64448L16.1757 9.13939L19.8066 14.5853C20.2415 15.2428 20.0986 16.1241 19.4783 16.6107L15.0077 20.0881C13.6472 21.1284 13.2587 23.0107 14.0963 24.5047L14.4513 25.1496C15.7079 27.4542 17.2701 30.3212 22.9736 36.0237C28.6771 41.7262 31.5431 43.2885 33.8467 44.545L34.4926 44.9009C35.9864 45.7384 37.8688 45.35 38.9091 43.9895L42.3866 39.519C42.8732 38.899 43.7542 38.7562 44.412 39.1906L56.3527 47.1544C57.0231 47.5994 57.2241 48.4935 56.8088 49.1827Z" fill="#A09FB4"/>
<path d="M33.4313 9.83837C42.658 9.84862 50.1352 17.3259 50.1455 26.5526C50.1455 27.0956 50.5857 27.5357 51.1287 27.5357C51.6717 27.5357 52.1118 27.0956 52.1118 26.5526C52.1004 16.2403 43.7436 7.88336 33.4313 7.87207C32.8883 7.87207 32.4482 8.3122 32.4482 8.85522C32.4482 9.39824 32.8883 9.83837 33.4313 9.83837Z" fill="#A09FB4"/>
<path d="M33.4313 15.7375C39.4014 15.7446 44.2394 20.5825 44.2464 26.5526C44.2464 27.0957 44.6867 27.5358 45.2296 27.5358C45.7726 27.5358 46.2127 27.0957 46.2127 26.5526C46.2045 19.497 40.4869 13.7793 33.4313 13.7712C32.8883 13.7712 32.4482 14.2114 32.4482 14.7544C32.4482 15.2974 32.8883 15.7375 33.4313 15.7375Z" fill="#A09FB4"/>
<path d="M33.4313 21.6367C36.1449 21.6399 38.3439 23.839 38.3473 26.5527C38.3473 27.0957 38.7875 27.5358 39.3304 27.5358C39.8733 27.5358 40.3136 27.0957 40.3136 26.5527C40.3092 22.7535 37.2305 19.6747 33.4313 19.6704C32.8883 19.6704 32.4482 20.1105 32.4482 20.6536C32.4482 21.1966 32.8883 21.6367 33.4313 21.6367Z" fill="#A09FB4"/>
</g>
</g>
<defs>
<clipPath id="clip0_19_787">
<rect width="59" height="59" fill="white"/>
</clipPath>
</defs>
</svg>
