<svg width="70" height="70" viewBox="0 0 70 70" fill="none" xmlns="http://www.w3.org/2000/svg">
<path d="M70 0H0V70H70V0Z" fill="#C1272D"/>
<path d="M48.3434 44.3333C47.5413 44.3333 46.8851 44.9895 46.8851 45.7916V62.4166H12.833V28.5833C13.2705 28.5103 13.7809 28.4374 14.2184 28.4374H16.9893L14.7288 30.6978C14.1455 31.2812 14.1455 32.1562 14.7288 32.7395C15.0205 33.0312 15.3851 33.177 15.7497 33.177C16.1143 33.177 16.4788 33.0312 16.7705 32.7395L21.5101 27.9999C22.0934 27.4166 22.0934 26.5416 21.5101 25.9583L16.7705 21.2187C16.1872 20.6353 15.3122 20.6353 14.7288 21.2187C14.1455 21.802 14.1455 22.677 14.7288 23.2603L16.9893 25.5208H14.2184C13.7809 25.5208 13.2705 25.5208 12.833 25.5937V19.0312H46.8851V33.5416C46.8851 34.3437 47.5413 34.9999 48.3434 34.9999C49.1455 34.9999 49.8018 34.3437 49.8018 33.5416V17.5728C49.8018 16.7708 49.1455 16.1145 48.3434 16.1145H11.3747C10.5726 16.1145 9.91634 16.7708 9.91634 17.5728V26.3228C5.46843 28.0728 2.33301 32.3749 2.33301 37.4062C2.33301 40.4687 3.49967 43.3853 5.61426 45.5728C5.90592 45.8645 6.27051 46.0103 6.70801 46.0103C7.07259 46.0103 7.43717 45.8645 7.72884 45.6458C8.31218 45.0624 8.31217 44.1874 7.80176 43.6041C6.19759 41.927 5.32259 39.7395 5.32259 37.4062C5.32259 33.9791 7.21842 31.0624 9.98926 29.5312V63.8749C9.98926 64.677 10.6455 65.3333 11.4476 65.3333H48.4163C49.2184 65.3333 49.8747 64.677 49.8747 63.8749V45.7916C49.8018 44.9166 49.1455 44.3333 48.3434 44.3333Z" fill="white"/>
<path d="M42.291 23.6979H30.4056C29.6035 23.6979 28.9473 24.3541 28.9473 25.1562C28.9473 25.9583 29.6035 26.6145 30.4056 26.6145H42.291C43.0931 26.6145 43.7493 25.9583 43.7493 25.1562C43.7493 24.3541 43.0931 23.6979 42.291 23.6979Z" fill="white"/>
<path d="M42.291 29.6041H30.4056C29.6035 29.6041 28.9473 30.2604 28.9473 31.0625C28.9473 31.8645 29.6035 32.5208 30.4056 32.5208H42.291C43.0931 32.5208 43.7493 31.8645 43.7493 31.0625C43.7493 30.2604 43.0931 29.6041 42.291 29.6041Z" fill="white"/>
<path d="M42.291 35.5833H17.0618C16.2598 35.5833 15.6035 36.2395 15.6035 37.0416C15.6035 37.8437 16.2598 38.4999 17.0618 38.4999H42.291C43.0931 38.4999 43.7493 37.8437 43.7493 37.0416C43.7493 36.2395 43.0931 35.5833 42.291 35.5833Z" fill="white"/>
<path d="M42.291 41.5625H17.0618C16.2598 41.5625 15.6035 42.2188 15.6035 43.0208C15.6035 43.8229 16.2598 44.4792 17.0618 44.4792H42.291C43.0931 44.4792 43.7493 43.8229 43.7493 43.0208C43.7493 42.2188 43.0931 41.5625 42.291 41.5625Z" fill="white"/>
<path d="M42.2917 47.5416H16.9896C16.1875 47.5416 15.5312 48.1979 15.5312 49C15.5312 49.802 16.1875 50.4583 16.9896 50.4583H42.2917C43.0938 50.4583 43.75 49.802 43.75 49C43.75 48.1979 43.0938 47.5416 42.2917 47.5416Z" fill="white"/>
<path d="M42.2917 53.4479H16.9896C16.1875 53.4479 15.5312 54.1041 15.5312 54.9062C15.5312 55.7083 16.1875 56.3645 16.9896 56.3645H42.2917C43.0938 56.3645 43.75 55.7083 43.75 54.9062C43.75 54.1041 43.0938 53.4479 42.2917 53.4479Z" fill="white"/>
<path d="M67.6667 29.4583C67.6667 26.3958 66.5 23.4791 64.3854 21.2916C63.8021 20.7083 62.9271 20.7083 62.3438 21.2187C61.7604 21.802 61.7604 22.677 62.2708 23.2604C63.875 24.9375 64.75 27.125 64.75 29.4583C64.75 32.7395 63 35.5833 60.4479 37.1145V6.99996C60.4479 6.19788 59.7917 5.54163 58.9896 5.54163H22.0208C21.2188 5.54163 20.5625 6.19788 20.5625 6.99996V12.3958C20.5625 13.1979 21.2188 13.8541 22.0208 13.8541C22.8229 13.8541 23.4792 13.1979 23.4792 12.3958V8.45829H57.5312V38.2812C56.9479 38.427 56.3646 38.427 55.7812 38.427H53.0104L55.2708 36.1666C55.8542 35.5833 55.8542 34.7083 55.2708 34.125C54.6875 33.5416 53.8125 33.5416 53.2292 34.125L48.4896 38.8645C47.9062 39.4479 47.9062 40.3229 48.4896 40.9062L53.2292 45.6458C53.5208 45.9375 53.8854 46.0833 54.25 46.0833C54.6146 46.0833 54.9792 45.9375 55.2708 45.6458C55.8542 45.0625 55.8542 44.1875 55.2708 43.6041L53.0104 41.3437H55.7812C56.3646 41.3437 56.9479 41.2708 57.5312 41.1979V51.7708H53.5208C52.7188 51.7708 52.0625 52.427 52.0625 53.2291C52.0625 54.0312 52.7188 54.6875 53.5208 54.6875H58.9896C59.7917 54.6875 60.4479 54.0312 60.4479 53.2291V40.3958C64.6771 38.5729 67.6667 34.3437 67.6667 29.4583Z" fill="white"/>
</svg>
