<svg width="70" height="70" viewBox="0 0 70 70" fill="none" xmlns="http://www.w3.org/2000/svg">
<path d="M70 0H0V70H70V0Z" fill="#ED2D24"/>
<path d="M45.3548 37.1875C45.3548 38.4271 44.334 39.448 43.0944 39.448C41.8548 39.448 40.834 38.4271 40.834 37.1875C40.834 35.948 41.8548 34.9271 43.0944 34.9271C44.4069 34.9271 45.3548 35.948 45.3548 37.1875Z" fill="white"/>
<path d="M37.2611 13.7813C37.2611 15.0209 36.2402 16.0417 35.0006 16.0417C33.7611 16.0417 32.7402 15.0209 32.7402 13.7813C32.7402 12.5417 33.7611 11.5209 35.0006 11.5209C36.2402 11.5209 37.2611 12.5417 37.2611 13.7813Z" fill="white"/>
<path d="M37.2611 23.1147C37.2611 24.3542 36.2402 25.3751 35.0006 25.3751C33.7611 25.3751 32.7402 24.3542 32.7402 23.1147C32.7402 21.8751 33.7611 20.8542 35.0006 20.8542C36.2402 20.9272 37.2611 21.8751 37.2611 23.1147Z" fill="white"/>
<path d="M37.2611 32.5209C37.2611 33.7605 36.2402 34.7813 35.0006 34.7813C33.7611 34.7813 32.7402 33.7605 32.7402 32.5209C32.7402 31.2813 33.7611 30.2605 35.0006 30.2605C36.2402 30.2605 37.2611 31.2813 37.2611 32.5209Z" fill="white"/>
<path d="M29.0941 37.1875C29.0941 38.4271 28.0732 39.448 26.8337 39.448C25.5941 39.448 24.5732 38.4271 24.5732 37.1875C24.5732 35.948 25.5941 34.9271 26.8337 34.9271C28.1462 34.9271 29.0941 35.948 29.0941 37.1875Z" fill="white"/>
<path d="M53.4486 23.1147C53.4486 24.3542 52.4277 25.3751 51.1881 25.3751C49.9486 25.3751 48.9277 24.3542 48.9277 23.1147C48.9277 21.8751 49.9486 20.8542 51.1881 20.8542C52.4277 20.9272 53.4486 21.8751 53.4486 23.1147Z" fill="white"/>
<path d="M45.3548 27.7813C45.3548 29.0209 44.334 30.0417 43.0944 30.0417C41.8548 30.0417 40.834 29.0209 40.834 27.7813C40.834 26.5417 41.8548 25.5209 43.0944 25.5209C44.4069 25.5938 45.3548 26.5417 45.3548 27.7813Z" fill="white"/>
<path d="M29.0941 27.7813C29.0941 29.0209 28.0732 30.0417 26.8337 30.0417C25.5941 30.0417 24.5732 29.0209 24.5732 27.7813C24.5732 26.5417 25.5941 25.5209 26.8337 25.5209C28.1462 25.5938 29.0941 26.5417 29.0941 27.7813Z" fill="white"/>
<path d="M53.4486 41.8542C53.4486 43.0938 52.4277 44.1146 51.1881 44.1146C49.9486 44.1146 48.9277 43.0938 48.9277 41.8542C48.9277 40.6146 49.9486 39.5938 51.1881 39.5938C52.4277 39.6667 53.4486 40.6146 53.4486 41.8542Z" fill="white"/>
<path d="M21.0003 23.1147C21.0003 24.3542 19.9795 25.3751 18.7399 25.3751C17.5003 25.3751 16.4795 24.3542 16.4795 23.1147C16.4795 21.8751 17.5003 20.8542 18.7399 20.8542C19.9795 20.9272 21.0003 21.8751 21.0003 23.1147Z" fill="white"/>
<path d="M21.0003 41.8542C21.0003 43.0938 19.9795 44.1146 18.7399 44.1146C17.5003 44.1146 16.4795 43.0938 16.4795 41.8542C16.4795 40.6146 17.5003 39.5938 18.7399 39.5938C19.9795 39.6667 21.0003 40.6146 21.0003 41.8542Z" fill="white"/>
<path d="M37.2611 41.8542C37.2611 43.0938 36.2402 44.1146 35.0006 44.1146C33.7611 44.1146 32.7402 43.0938 32.7402 41.8542C32.7402 40.6146 33.7611 39.5938 35.0006 39.5938C36.2402 39.6667 37.2611 40.6146 37.2611 41.8542Z" fill="white"/>
<path d="M37.2611 51.2604C37.2611 52.5 36.2402 53.5208 35.0006 53.5208C33.7611 53.5208 32.7402 52.5 32.7402 51.2604C32.7402 50.0208 33.7611 49 35.0006 49C36.2402 49 37.2611 50.0208 37.2611 51.2604Z" fill="white"/>
<path d="M37.2611 60.5938C37.2611 61.8334 36.2402 62.8542 35.0006 62.8542C33.7611 62.8542 32.7402 61.8334 32.7402 60.5938C32.7402 59.3542 33.7611 58.3334 35.0006 58.3334C36.2402 58.4063 37.2611 59.3542 37.2611 60.5938Z" fill="white"/>
</svg>
