<svg width="59" height="59" viewBox="0 0 59 59" fill="none" xmlns="http://www.w3.org/2000/svg">
<path d="M44.7701 46.9989C44.339 46.9989 43.9895 47.3485 43.9895 47.7796V49.3974C43.9895 51.5233 42.2599 53.253 40.1339 53.253H12.3271C13.2423 52.4262 13.9435 51.24 13.9435 49.606V41.972C13.9435 41.5408 13.594 41.1914 13.1629 41.1914C12.7319 41.1914 12.3823 41.5408 12.3823 41.972V49.606C12.3823 52.6084 9.01167 53.239 8.87039 53.2642C8.84734 53.2681 8.82614 53.2761 8.80389 53.282C8.73971 53.265 8.67356 53.253 8.60407 53.253C6.93652 53.253 5.57986 51.8963 5.57986 50.2288V45.131H9.79513C10.2262 45.131 10.5757 44.7815 10.5757 44.3504C10.5757 43.9193 10.2262 43.5698 9.79513 43.5698H4.79915C4.36806 43.5698 4.01855 43.9193 4.01855 44.3504V50.2289C4.01855 52.7574 6.0756 54.8144 8.60396 54.8144C8.67321 54.8144 8.73901 54.8024 8.80297 54.7856C8.86692 54.8024 8.93261 54.8144 9.00163 54.8144H40.1338C43.1206 54.8144 45.5507 52.3843 45.5507 49.3975V47.7797C45.5507 47.3486 45.2012 46.9989 44.7701 46.9989Z" fill="#A09FB4"/>
<path d="M13.1634 15.6774C13.5946 15.6774 13.944 15.3279 13.944 14.8968V5.74674H43.9898V15.9498C43.9898 16.381 44.3394 16.7304 44.7704 16.7304C45.2015 16.7304 45.551 16.3809 45.551 15.9498V4.96614C45.551 4.53505 45.2015 4.18555 44.7704 4.18555H13.1634C12.7323 4.18555 12.3828 4.53505 12.3828 4.96614V14.8968C12.3829 15.328 12.7323 15.6774 13.1634 15.6774Z" fill="#A09FB4"/>
<path d="M27.7855 10.7244C27.3543 10.7244 27.0049 11.0739 27.0049 11.505C27.0049 11.9362 27.3544 12.2856 27.7855 12.2856H40.3743C40.8055 12.2856 41.1549 11.9361 41.1549 11.505C41.1549 11.0739 40.8055 10.7244 40.3743 10.7244H27.7855Z" fill="#A09FB4"/>
<path d="M17.3997 10.7244C16.9686 10.7244 16.6191 11.0739 16.6191 11.505C16.6191 11.9362 16.9686 12.2856 17.3997 12.2856H22.9798C23.4109 12.2856 23.7604 11.9361 23.7604 11.505C23.7604 11.0739 23.4109 10.7244 22.9798 10.7244H17.3997Z" fill="#A09FB4"/>
<path d="M40.3745 49.9728C40.8057 49.9728 41.1551 49.6233 41.1551 49.1922C41.1551 48.7612 40.8057 48.4116 40.3745 48.4116H34.9535C34.5223 48.4116 34.1729 48.7612 34.1729 49.1922C34.1729 49.6233 34.5223 49.9728 34.9535 49.9728H40.3745Z" fill="#A09FB4"/>
<path d="M16.6191 49.1922C16.6191 49.6233 16.9686 49.9728 17.3997 49.9728H29.6521C30.0832 49.9728 30.4327 49.6233 30.4327 49.1922C30.4327 48.7612 30.0832 48.4116 29.6521 48.4116H17.3997C16.9686 48.4115 16.6191 48.7611 16.6191 49.1922Z" fill="#A09FB4"/>
<path d="M23.5207 42.8877H17.3997C16.9686 42.8877 16.6191 43.2371 16.6191 43.6682C16.6191 44.0994 16.9686 44.4488 17.3997 44.4488H23.5207C23.9519 44.4488 24.3013 44.0994 24.3013 43.6682C24.3014 43.2371 23.9519 42.8877 23.5207 42.8877Z" fill="#A09FB4"/>
<path d="M41.005 31.7222H28.3843C28.3806 31.7222 28.377 31.7232 28.3734 31.7233C28.3447 31.7237 28.3168 31.7283 28.2885 31.7318C28.265 31.7346 28.2411 31.7358 28.2183 31.7407C28.1976 31.7452 28.1782 31.7532 28.158 31.7594C28.1294 31.768 28.1005 31.7755 28.0734 31.7872C28.0573 31.7943 28.0427 31.8042 28.0271 31.8124C27.9985 31.8273 27.9695 31.8412 27.9432 31.8592C27.9246 31.8719 27.9086 31.8879 27.8912 31.9022C27.8701 31.9193 27.8481 31.9352 27.829 31.9546C27.8125 31.9713 27.7991 31.9908 27.7842 32.009C27.7669 32.0301 27.7484 32.0499 27.7335 32.0728C27.7225 32.0893 27.7144 32.1082 27.7047 32.1256C27.6892 32.1535 27.6733 32.1809 27.6612 32.2108C27.6599 32.2139 27.658 32.2164 27.6567 32.2195C27.532 32.54 27.3891 32.8584 27.2321 33.1657C27.0359 33.5497 27.1882 34.0198 27.572 34.216C27.6858 34.2742 27.8071 34.3017 27.9265 34.3017C28.2104 34.3017 28.4843 34.1461 28.6223 33.876C28.7215 33.6817 28.8145 33.4835 28.9032 33.2834H41.0048C41.436 33.2834 41.7854 32.9339 41.7854 32.5027C41.7856 32.0716 41.4362 31.7222 41.005 31.7222Z" fill="#A09FB4"/>
<path d="M32.0228 28.4039H34.0759C34.5071 28.4039 34.8566 28.0544 34.8566 27.6233V25.4957C34.8566 25.2858 35.0271 25.1152 35.237 25.1152H37.8057C37.9435 25.1152 38.034 25.1856 38.0758 25.2276C38.1174 25.2697 38.1873 25.3608 38.1862 25.4988L38.1689 27.6669C38.1672 27.875 38.2486 28.0752 38.3953 28.2228C38.5419 28.3706 38.7414 28.4537 38.9496 28.4537H41.0794C41.5106 28.4537 41.86 28.1042 41.86 27.6731C41.86 27.242 41.5106 26.8925 41.0794 26.8925H39.7364L39.7475 25.5112C39.7518 24.9895 39.5517 24.4983 39.1841 24.1281C38.8167 23.7578 38.3273 23.554 37.8058 23.554H35.2371C34.1666 23.554 33.2954 24.4251 33.2954 25.4958V26.8427H32.0228C31.5917 26.8427 31.2422 27.1923 31.2422 27.6233C31.242 28.0544 31.5915 28.4039 32.0228 28.4039Z" fill="#A09FB4"/>
<path d="M18.0137 40.373C18.9258 40.373 19.8347 40.2694 20.7155 40.0648C21.1355 39.9673 21.3969 39.5481 21.2994 39.1281C21.202 38.708 20.783 38.4461 20.3626 38.5442C19.5974 38.7216 18.8072 38.8118 18.0137 38.8118C12.3096 38.8118 7.66885 34.171 7.66885 28.4669C7.66885 22.7627 12.3096 18.122 18.0137 18.122C19.3693 18.122 20.6868 18.3799 21.9294 18.8886C22.3285 19.052 22.7843 18.8608 22.9476 18.4619C23.1109 18.063 22.9198 17.6071 22.5209 17.4437C21.0895 16.8579 19.573 16.5608 18.0136 16.5608C11.4486 16.5608 6.10742 21.9018 6.10742 28.4669C6.10754 35.0319 11.4487 40.373 18.0137 40.373Z" fill="#A09FB4"/>
<path d="M18.0139 25.611C18.1368 25.611 18.26 25.6188 18.3803 25.6342C18.8087 25.6896 19.1989 25.3865 19.2536 24.959C19.3084 24.5314 19.0061 24.1404 18.5785 24.0856C18.3927 24.0619 18.2028 24.0498 18.0139 24.0498C15.5783 24.0498 13.5967 26.0314 13.5967 28.4671C13.5967 30.9028 15.5782 32.8843 18.0139 32.8843C18.445 32.8843 18.7945 32.5349 18.7945 32.1038C18.7945 31.6726 18.445 31.3232 18.0139 31.3232C16.439 31.3232 15.158 30.042 15.158 28.4672C15.158 26.8923 16.439 25.611 18.0139 25.611Z" fill="#A09FB4"/>
<path d="M34.3692 42.8877C27.1378 42.8877 21.2546 37.0044 21.2546 29.7731C21.2546 22.5418 27.1378 16.6586 34.3692 16.6586C41.6005 16.6586 47.4837 22.5418 47.4837 29.7731C47.4837 37.0044 41.6005 42.8877 34.3692 42.8877ZM54.0989 45.2342L48.6133 39.7485C48.3084 39.4437 47.8141 39.4437 47.5093 39.7485C47.2044 40.0534 47.2044 40.5477 47.5093 40.8525L52.9949 46.3381C53.563 46.9062 53.563 47.8305 52.995 48.3989C52.4268 48.9668 51.5024 48.9672 50.9341 48.3989L43.6596 41.1242C46.9447 38.4306 49.0449 34.3428 49.0449 29.7731C49.0449 21.6809 42.4613 15.0974 34.3692 15.0974C26.2769 15.0974 19.6934 21.681 19.6934 29.7731C19.6934 37.8652 26.277 44.4488 34.3692 44.4488C37.3254 44.4488 40.0784 43.5671 42.3846 42.0572L49.8302 49.5026C50.4186 50.0911 51.1915 50.3852 51.9645 50.3852C52.7373 50.3852 53.5103 50.0911 54.0988 49.5026C55.2757 48.3259 55.2757 46.4112 54.0989 45.2342Z" fill="#A09FB4"/>
<path d="M34.369 38.9481C29.31 38.9481 25.194 34.8323 25.194 29.7731C25.194 24.714 29.3099 20.5982 34.369 20.5982C39.4282 20.5982 43.5439 24.714 43.5439 29.7731C43.5439 34.8323 39.4281 38.9481 34.369 38.9481ZM34.369 19.0369C28.449 19.0369 23.6328 23.8531 23.6328 29.7731C23.6328 35.6932 28.449 40.5094 34.369 40.5094C40.289 40.5094 45.1052 35.6932 45.1052 29.7731C45.1052 23.8532 40.289 19.0369 34.369 19.0369Z" fill="#A09FB4"/>
<path d="M28.1868 26.5809C28.2012 26.6556 28.2119 26.7291 28.2244 26.8031C28.2734 27.1058 28.3102 27.411 28.3323 27.7181C28.3328 27.7277 28.3335 27.7373 28.3342 27.7467C28.3415 27.8518 28.3468 27.957 28.3509 28.0623C28.3554 28.1945 28.3592 28.3275 28.3592 28.4671C28.3592 28.6518 28.3524 28.8387 28.3426 29.0242C28.3373 29.1249 28.3323 29.226 28.3241 29.3257C28.2887 29.7554 28.6085 30.1323 29.0381 30.1677C29.0598 30.1695 29.0815 30.1703 29.1029 30.1703C29.505 30.1703 29.8464 29.8615 29.8801 29.4537C29.8865 29.3756 29.8896 29.2965 29.8946 29.2178C29.8954 29.2087 29.8982 29.2003 29.8987 29.1911C29.9005 29.1638 29.8998 29.1362 29.9012 29.1089C29.9126 28.8951 29.9204 28.6807 29.9204 28.4671C29.9204 28.3109 29.9167 28.1549 29.9106 27.9992C29.9066 27.8813 29.8995 27.7654 29.8923 27.6511C29.8909 27.6328 29.8899 27.6145 29.8886 27.5963C29.8644 27.2466 29.8241 26.9053 29.7667 26.5619C29.7522 26.472 29.7375 26.3821 29.7211 26.2927C29.7193 26.2837 29.7184 26.2751 29.7166 26.2662C29.7161 26.2638 29.7149 26.2616 29.7145 26.2592C29.6432 25.8785 29.5544 25.5016 29.4462 25.1301C29.3255 24.7162 28.8925 24.4782 28.4784 24.5991C28.0646 24.7198 27.8268 25.153 27.9474 25.567C28.0445 25.9004 28.1239 26.239 28.1868 26.5809Z" fill="#A09FB4"/>
</svg>
