<svg width="59" height="59" viewBox="0 0 59 59" fill="none" xmlns="http://www.w3.org/2000/svg">
<g clip-path="url(#clip0_19_745)">
<mask id="mask0_19_745" style="mask-type:luminance" maskUnits="userSpaceOnUse" x="0" y="0" width="59" height="59">
<path d="M59 0H0V59H59V0Z" fill="white"/>
</mask>
<g mask="url(#mask0_19_745)">
<path d="M29.4901 9.83497C40.336 9.83497 49.16 18.6589 49.16 29.5049C49.16 40.3509 40.336 49.1748 29.4901 49.1748C18.6441 49.1748 9.82008 40.3509 9.82008 29.5049C9.82008 18.6589 18.645 9.83497 29.4901 9.83497ZM29.4901 51.1418C41.4208 51.1418 51.127 41.4356 51.127 29.5048C51.127 17.574 41.4208 7.86792 29.4901 7.86792C17.5593 7.86792 7.85303 17.5741 7.85303 29.5049C7.85303 41.4357 17.5602 51.1418 29.4901 51.1418Z" fill="#A09FB4"/>
<path d="M29.4898 14.7522C30.0327 14.7522 30.4734 14.3126 30.4734 13.7687V11.8016C30.4734 11.2577 30.0327 10.8181 29.4898 10.8181C28.947 10.8181 28.5063 11.2577 28.5063 11.8016V13.7687C28.5063 14.3126 28.9469 14.7522 29.4898 14.7522Z" fill="#A09FB4"/>
<path d="M29.4898 44.2573C28.947 44.2573 28.5063 44.6969 28.5063 45.2409V47.2079C28.5063 47.7518 28.947 48.1914 29.4898 48.1914C30.0327 48.1914 30.4734 47.7518 30.4734 47.2079V45.2409C30.4733 44.6969 30.0336 44.2573 29.4898 44.2573Z" fill="#A09FB4"/>
<path d="M45.2262 30.4883H47.1932C47.7361 30.4883 48.1768 30.0487 48.1768 29.5048C48.1768 28.9609 47.7361 28.5212 47.1932 28.5212H45.2262C44.6833 28.5212 44.2427 28.9609 44.2427 29.5048C44.2427 30.0487 44.6833 30.4883 45.2262 30.4883Z" fill="#A09FB4"/>
<path d="M13.7538 28.5215H11.7867C11.2439 28.5215 10.8032 28.9611 10.8032 29.505C10.8032 30.0489 11.2439 30.4885 11.7867 30.4885H13.7538C14.2967 30.4885 14.7373 30.0489 14.7373 29.505C14.7373 28.9611 14.2976 28.5215 13.7538 28.5215Z" fill="#A09FB4"/>
<path d="M29.4903 26.5544C30.5751 26.5544 31.4573 27.4366 31.4573 28.5214C31.4573 29.6062 30.5751 30.4884 29.4903 30.4884C28.4054 30.4884 27.5232 29.6061 27.5232 28.5214C27.5232 27.4366 28.4054 26.5544 29.4903 26.5544ZM18.6717 40.3234C18.9235 40.3234 19.1753 40.227 19.367 40.0352L27.5045 31.8977C28.0897 32.2438 28.7634 32.4553 29.4903 32.4553C31.6599 32.4553 33.4242 30.6909 33.4242 28.5213C33.4242 26.693 32.1654 25.1666 30.4738 24.727V19.6698C30.4738 19.1259 30.0331 18.6863 29.4903 18.6863C28.9474 18.6863 28.5067 19.1259 28.5067 19.6698V24.727C26.8151 25.1666 25.5563 26.693 25.5563 28.5213C25.5563 29.2491 25.7677 29.9217 26.1139 30.507L17.9764 38.6445C17.5919 39.0291 17.5919 39.6506 17.9764 40.0352C18.1692 40.227 18.421 40.3234 18.6717 40.3234Z" fill="#A09FB4"/>
<path d="M9.90251 9.83502H17.6889C18.2318 9.83502 18.6725 9.3954 18.6725 8.8515C18.6725 8.30759 18.2318 7.86797 17.6889 7.86797H12.4745C17.3172 4.04715 23.2684 1.96705 29.4909 1.96705C44.6751 1.96705 57.0288 14.3208 57.0288 29.505C57.0288 30.0489 57.4695 30.4885 58.0123 30.4885C58.5552 30.4885 58.9959 30.0489 58.9959 29.505C58.9959 13.2359 45.7598 0 29.4909 0C22.6251 0 16.073 2.3683 10.8045 6.69765V0.983525C10.8045 0.439619 10.3638 0 9.82092 0C9.27805 0 8.8374 0.439619 8.8374 0.983525V9.83502H9.71571C9.77863 9.84182 9.83867 9.83986 9.90251 9.83502Z" fill="#A09FB4"/>
<path d="M4.72535 41.532C4.47944 41.0403 3.89924 40.8445 3.40741 41.0796C2.91571 41.3156 2.719 41.9057 2.955 42.3975C3.12221 42.7428 3.47621 42.9493 3.84012 42.9493C3.97782 42.9493 4.12533 42.9198 4.26303 42.85C4.75497 42.6149 4.96239 42.0238 4.72535 41.532Z" fill="#A09FB4"/>
<path d="M7.72541 46.3619C7.391 45.9301 6.7813 45.8505 6.34848 46.1849C5.91578 46.5193 5.83707 47.1389 6.17148 47.5608C6.36819 47.8175 6.66319 47.9453 6.94839 47.9453C7.1648 47.9453 7.3713 47.8765 7.55821 47.7388C7.98112 47.4044 8.05971 46.7839 7.72541 46.3619Z" fill="#A09FB4"/>
<path d="M6.10243 44.0213C5.81723 43.5591 5.20741 43.4214 4.7452 43.7066C4.283 44.0027 4.14529 44.6016 4.4305 45.0638C4.61741 45.3599 4.94191 45.5271 5.26652 45.5271C5.44352 45.5271 5.62064 45.4779 5.78773 45.3796C6.24993 45.0933 6.38764 44.4825 6.10243 44.0213Z" fill="#A09FB4"/>
<path d="M8.19714 48.4863C7.80373 48.86 7.79394 49.4796 8.16764 49.8731C8.35455 50.0796 8.62005 50.178 8.87576 50.178C9.12167 50.178 9.36746 50.0895 9.55437 49.9036C9.94778 49.5289 9.96749 48.9092 9.58387 48.5169C9.21017 48.1225 8.59055 48.1126 8.19714 48.4863Z" fill="#A09FB4"/>
<path d="M10.2722 50.5813C9.91817 50.9944 9.96737 51.6139 10.3804 51.968C10.5674 52.1254 10.7936 52.204 11.0198 52.204C11.2952 52.204 11.5705 52.086 11.7672 51.8587C12.1213 51.4456 12.0721 50.826 11.659 50.472C11.2459 50.119 10.6262 50.1683 10.2722 50.5813Z" fill="#A09FB4"/>
<path d="M2.06011 37.3925C2.58132 37.2548 2.90593 36.7237 2.77802 36.1927C2.64032 35.6715 2.1092 35.3469 1.5782 35.4846C1.05699 35.6125 0.732376 36.1435 0.870081 36.6746C0.978286 37.1172 1.38149 37.422 1.82411 37.422C1.90282 37.422 1.98152 37.4122 2.06011 37.3925Z" fill="#A09FB4"/>
<path d="M1.39128 34.511C1.93219 34.4323 2.3059 33.9406 2.22731 33.3997C2.1486 32.8587 1.64699 32.485 1.11599 32.5627C0.575083 32.6414 0.201378 33.1439 0.279968 33.6751C0.348763 34.1668 0.771673 34.5199 1.25358 34.5199C1.30278 34.5208 1.34208 34.5208 1.39128 34.511Z" fill="#A09FB4"/>
<path d="M3.60426 38.9159C3.42726 38.4045 2.85685 38.1399 2.34544 38.3258C1.83403 38.5127 1.57833 39.0732 1.76512 39.5846C1.90283 39.9878 2.28633 40.2337 2.67974 40.2337C2.79774 40.2337 2.90594 40.2131 3.02394 40.1737C3.53535 39.9889 3.79106 39.4283 3.60426 38.9159Z" fill="#A09FB4"/>
<path d="M0.988093 31.5899C0.997888 31.5899 1.0176 31.5899 1.02739 31.5899C1.5683 31.5693 1.99121 31.108 1.97151 30.5671C1.9518 30.0262 1.4896 29.6033 0.948683 29.623C0.407773 29.6427 -0.0151372 30.0941 0.00456782 30.6458C0.0242729 31.1661 0.466888 31.5899 0.988093 31.5899Z" fill="#A09FB4"/>
<path d="M12.5542 52.4596C12.2395 52.9022 12.3575 53.5119 12.8001 53.8266C12.9771 53.9446 13.164 53.9939 13.3608 53.9939C13.6755 53.9939 13.9804 53.8473 14.1672 53.5709C14.4819 53.1283 14.3639 52.5087 13.9213 52.2039C13.4688 51.899 12.8591 52.0072 12.5542 52.4596Z" fill="#A09FB4"/>
<path d="M48.1172 49.7736V49.7647C47.714 50.1384 47.6845 50.758 48.0582 51.1612C48.2549 51.3677 48.5204 51.4759 48.786 51.4759C49.022 51.4759 49.2581 51.3874 49.4449 51.2202C49.8481 50.8465 49.8678 50.2259 49.5039 49.8335C49.14 49.4304 48.5106 49.3998 48.1172 49.7736Z" fill="#A09FB4"/>
<path d="M50.1138 47.7389C49.7499 48.1421 49.7893 48.7617 50.1925 49.1257C50.3794 49.2929 50.6154 49.3716 50.8417 49.3716C51.1171 49.3716 51.3826 49.2634 51.5793 49.0362C51.9432 48.6339 51.9038 48.0134 51.5006 47.6505C51.0876 47.2963 50.4679 47.3258 50.1138 47.7389Z" fill="#A09FB4"/>
<path d="M51.884 45.5064C51.5693 45.949 51.6676 46.5686 52.1102 46.8833C52.2872 47.0112 52.4839 47.0692 52.6806 47.0692C52.9953 47.0692 53.2904 46.9226 53.4872 46.6561C53.8019 46.2145 53.7036 45.6047 53.261 45.2802C52.8183 44.9655 52.1987 45.0737 51.884 45.5064Z" fill="#A09FB4"/>
<path d="M45.9241 51.5844C45.4914 51.9089 45.4029 52.5285 45.7274 52.9603C45.9143 53.2269 46.2093 53.3537 46.5142 53.3537C46.7207 53.3537 46.9273 53.2937 47.0945 53.1668C47.5372 52.8423 47.6257 52.2227 47.301 51.7909C46.9765 51.3484 46.3569 51.2598 45.9241 51.5844Z" fill="#A09FB4"/>
<path d="M43.5539 53.1679C43.0917 53.4531 42.9342 54.053 43.2195 54.5153C43.3965 54.83 43.7309 54.9972 44.0653 54.9972C44.2325 54.9972 44.4095 54.9579 44.5669 54.8595C45.0291 54.5841 45.1865 53.9744 44.9013 53.5121C44.6258 53.0488 44.0259 52.8924 43.5539 53.1679Z" fill="#A09FB4"/>
<path d="M54.7656 42.7428C54.2934 42.4763 53.6935 42.6435 53.4181 43.1165H53.4279C53.1525 43.5876 53.3197 44.1885 53.7918 44.454C53.9393 44.5425 54.1065 44.5819 54.2737 44.5819C54.6179 44.5819 54.9524 44.4039 55.1294 44.0902C55.4048 43.6181 55.2377 43.0182 54.7656 42.7428Z" fill="#A09FB4"/>
<path d="M57.9622 31.4719C57.4213 31.4118 56.9394 31.8063 56.8804 32.3472C56.8214 32.8881 57.2148 33.37 57.7557 33.43C57.795 33.43 57.8245 33.43 57.8639 33.43C58.3556 33.43 58.7885 33.0553 58.8375 32.5449C58.8965 32.0128 58.5031 31.5211 57.9622 31.4719Z" fill="#A09FB4"/>
<path d="M57.608 34.4016C57.0769 34.2836 56.5557 34.6278 56.4475 35.1599C56.3295 35.691 56.6737 36.2113 57.2048 36.3204C57.2736 36.341 57.3425 36.341 57.4113 36.341C57.8637 36.341 58.2768 36.0263 58.3653 35.5641C58.4833 35.0321 58.1391 34.5109 57.608 34.4016Z" fill="#A09FB4"/>
<path d="M56.9491 37.2734C56.4377 37.1062 55.8771 37.3914 55.7198 37.9127C55.5526 38.4241 55.8378 38.9847 56.3492 39.1519C56.4475 39.1814 56.5557 39.1912 56.6541 39.1912C57.0673 39.1912 57.4508 38.9257 57.5885 38.5137C57.7557 37.9923 57.4704 37.4406 56.9491 37.2734Z" fill="#A09FB4"/>
<path d="M56.0052 40.0677C55.5036 39.8503 54.9234 40.0774 54.707 40.5693C54.4808 41.0709 54.707 41.6511 55.2086 41.8665C55.3365 41.9265 55.4741 41.956 55.602 41.956C55.9856 41.956 56.3396 41.7298 56.5068 41.365C56.7231 40.8643 56.4969 40.2841 56.0052 40.0677Z" fill="#A09FB4"/>
<path d="M41.0459 54.5054C40.5443 54.7305 40.3378 55.3118 40.564 55.8036C40.7312 56.1665 41.0852 56.3731 41.4591 56.3731C41.5968 56.3731 41.7345 56.3445 41.8722 56.2846C42.3639 56.0594 42.5803 55.4683 42.3443 54.9766C42.118 54.4847 41.5376 54.2694 41.0459 54.5054Z" fill="#A09FB4"/>
<path d="M24.3559 56.561C23.8248 56.4625 23.3036 56.8069 23.2052 57.3478C23.1069 57.8789 23.4511 58.3912 23.992 58.4985C24.051 58.5093 24.11 58.5093 24.169 58.5093C24.6312 58.5093 25.0443 58.1848 25.1426 57.7117C25.241 57.1806 24.887 56.6583 24.3559 56.561Z" fill="#A09FB4"/>
<path d="M27.1787 56.9435C26.6378 56.8943 26.1558 57.2975 26.1164 57.8385C26.0672 58.3903 26.4706 58.8614 27.0115 58.9106C27.0115 58.9008 27.0115 58.9008 27.0115 58.9008C27.041 58.9106 27.0705 58.9106 27.0902 58.9106C27.6016 58.9106 28.0343 58.5182 28.0737 58.0058C28.113 57.4658 27.7196 56.9936 27.1787 56.9435Z" fill="#A09FB4"/>
<path d="M21.5928 55.892C21.0716 55.7346 20.5207 56.0297 20.3635 56.5411C20.216 57.0614 20.5012 57.6132 21.0224 57.7705C21.1207 57.7989 21.2191 57.8098 21.3076 57.8098C21.7305 57.8098 22.1239 57.5343 22.2517 57.1105C22.409 56.5903 22.114 56.0386 21.5928 55.892Z" fill="#A09FB4"/>
<path d="M18.9072 54.9282C18.4056 54.7217 17.8352 54.9577 17.6287 55.4593C17.4123 55.961 17.6484 56.5314 18.1499 56.7487C18.2778 56.7979 18.4056 56.8166 18.5335 56.8166C18.9172 56.8166 19.2809 56.5914 19.4384 56.2176C19.6449 55.714 19.4087 55.1347 18.9072 54.9282Z" fill="#A09FB4"/>
<path d="M32.8631 56.8364C32.3222 56.9043 31.9386 57.396 32.0075 57.9271C32.0665 58.4296 32.4894 58.7935 32.9811 58.7935C33.0204 58.7935 33.0598 58.7935 33.0991 58.7827C33.0991 58.7935 33.0991 58.7935 33.0991 58.7935C33.64 58.7247 34.0236 58.2329 33.9547 57.692C33.8957 57.1501 33.404 56.7675 32.8631 56.8364Z" fill="#A09FB4"/>
<path d="M38.4014 55.5676C37.89 55.7348 37.6145 56.2954 37.7915 56.8166C37.9292 57.2198 38.3128 57.4755 38.7161 57.4755C38.8243 57.4755 38.9325 57.4558 39.0406 57.4263C39.552 57.2493 39.8274 56.6887 39.6504 56.1773C39.4724 55.6561 38.9119 55.3895 38.4014 55.5676Z" fill="#A09FB4"/>
<path d="M35.6663 56.3445C35.1352 56.4625 34.8008 56.9936 34.9287 57.5247C35.027 57.9771 35.4401 58.2821 35.8827 58.2821C35.9614 58.2821 36.0302 58.2821 36.1089 58.2624C36.6301 58.1444 36.9645 57.6132 36.8465 57.0821C36.7186 56.551 36.1974 56.2265 35.6663 56.3445Z" fill="#A09FB4"/>
<path d="M30.0211 57.0332C29.4802 57.043 29.0475 57.4954 29.0573 58.0363C29.0671 58.5772 29.5097 59.0001 30.0408 59.0001C30.0506 59.0001 30.0506 59.0001 30.0605 59.0001C30.6014 58.9892 31.0342 58.5477 31.0244 57.9959C31.0144 57.456 30.5622 57.0223 30.0211 57.0332Z" fill="#A09FB4"/>
<path d="M16.3407 53.6989C15.8685 53.4334 15.2686 53.6104 15.0031 54.0923C14.7474 54.5634 14.9244 55.1644 15.4063 55.4201C15.5538 55.5086 15.7113 55.5479 15.8685 55.5479C16.2227 55.5479 16.557 55.362 16.7341 55.0276C16.9996 54.5545 16.8226 53.9536 16.3407 53.6989Z" fill="#A09FB4"/>
</g>
</g>
<defs>
<clipPath id="clip0_19_745">
<rect width="59" height="59" fill="white"/>
</clipPath>
</defs>
</svg>
