<svg width="70" height="70" viewBox="0 0 70 70" fill="none" xmlns="http://www.w3.org/2000/svg">
<path d="M70 0H0V70H70V0Z" fill="#14C4B7"/>
<path d="M42.5112 54.6146C41.3445 55.9271 39.5945 57.6042 39.0112 57.9688C37.6257 58.9167 35.7299 58.7709 35.7299 58.7709C35.657 58.7709 35.5841 58.7709 35.5112 58.7709C33.4695 58.9167 32.5945 58.2605 32.5945 58.2605C32.4487 58.1146 32.3757 58.0417 32.2299 57.9688C28.657 56 26.032 52.7188 24.4278 50.2396C23.4799 48.7084 22.6778 43.0938 22.4591 39.8855C21.7299 33.9063 21.4382 29.9688 21.7299 27.198C22.532 24.2813 23.9903 20.8542 26.8341 18.5938C29.8237 16.1146 33.9799 15.3855 39.0841 16.4063C39.5945 16.5521 45.0632 18.1563 47.9799 25.8125C47.9799 25.8855 47.9799 25.8855 47.9799 25.9584C48.3445 28.8021 48.0528 32.3021 47.8341 35.5834C47.7612 37.1146 47.6153 38.7188 47.5424 40.1771C47.4695 41.8542 47.3966 43.3855 47.2507 44.625C47.1778 45.4271 47.7612 46.1563 48.4903 46.2292C48.5632 46.2292 48.6362 46.2292 48.6362 46.2292C49.3653 46.2292 50.0216 45.7188 50.0945 44.9167C50.1674 44.3334 50.2403 43.6771 50.2403 43.0209C50.532 43.3855 50.8966 43.6042 51.407 43.6042C51.4799 43.6042 51.4799 43.6042 51.5528 43.6042C52.3549 43.5313 52.9382 42.8021 52.8653 42C52.4278 37.625 52.5007 34.125 52.5007 34.0521C52.5007 33.9792 52.5007 33.8334 52.5007 33.7605C51.3341 16.5521 40.1049 13.7084 39.6674 13.5625C33.6882 12.3959 28.7299 13.3438 25.0112 16.3334C18.157 21.875 18.0112 32.375 18.0112 32.8125C18.0112 55.4896 10.8653 57.6771 10.6466 57.75C9.84449 57.8959 9.33408 58.625 9.47991 59.4271C9.62574 60.1563 10.2091 60.6667 10.9382 60.6667C11.0112 60.6667 11.0841 60.6667 11.157 60.6667C11.9591 60.5209 18.0112 58.9896 20.1257 44.4792C20.4903 47.1771 21.1466 50.3125 22.0945 51.7709C23.8445 54.4688 26.7612 58.1146 30.7716 60.375C31.282 60.8125 32.5945 61.6146 35.0007 61.6146C35.2195 61.6146 35.4382 61.6146 35.657 61.6146C36.2403 61.6146 38.6466 61.6875 40.6882 60.375C41.6362 59.7188 43.6778 57.75 44.7716 56.5105C45.282 55.9271 45.282 54.9792 44.6987 54.4688C43.9695 53.9584 43.0945 54.0313 42.5112 54.6146Z" fill="white"/>
<path d="M60.5213 57.8229C58.2608 57.5313 56.4379 55.7084 55.0525 52.3542C54.7608 51.625 53.8858 51.2604 53.1567 51.5521C52.4275 51.8438 52.0629 52.7188 52.3546 53.4479C54.1775 57.8959 56.8025 60.3021 60.1567 60.7396C60.2296 60.7396 60.3025 60.7396 60.3025 60.7396C61.0317 60.7396 61.6879 60.2292 61.7608 59.4271C61.9067 58.625 61.3233 57.8959 60.5213 57.8229Z" fill="white"/>
<path d="M57.8232 26.25C55.8545 15.4583 46.3753 7.21875 35.0003 7.21875C23.6253 7.21875 14.0732 15.4583 12.1045 26.3229C6.19824 26.5417 5.76074 29.0208 5.76074 29.8229V41.8542C5.76074 42.2917 5.90658 42.6562 6.19824 42.9479C6.27116 43.0208 8.89616 45.3542 13.1982 45.3542C14.0003 45.3542 14.6566 44.6979 14.6566 43.8958V30.4792C14.6566 19.25 23.7712 10.1354 35.0003 10.1354C46.2295 10.1354 55.3441 19.25 55.3441 30.4792V33.7604V38.4271C55.3441 44.5521 49.6566 49.5833 42.6566 49.5833H40.1045C39.5212 47.7604 37.7712 46.4479 35.8024 46.4479C33.2503 46.4479 31.2087 48.4896 31.2087 51.0417C31.2087 53.5938 33.2503 55.6354 35.8024 55.6354C37.8441 55.6354 39.5212 54.3229 40.1045 52.5H42.6566C48.4899 52.5 53.667 49.5833 56.292 45.2812C56.4378 45.3542 56.5107 45.3542 56.6566 45.3542C56.9482 45.3542 57.6045 45.4271 58.4066 45.4271C59.9378 45.4271 62.0524 45.2083 63.292 44.1146C63.9482 43.5312 64.3128 42.7292 64.3128 41.8542V29.75C64.2399 29.1667 63.9482 26.3958 57.8232 26.25ZM11.7399 30.4792V42.2917C10.2816 42.0729 9.26074 41.4896 8.67741 41.125V30.0417C8.89616 29.8958 9.62533 29.3854 11.8128 29.2396C11.7399 29.6771 11.7399 30.0417 11.7399 30.4792ZM35.7295 52.6458C34.7816 52.6458 34.0524 51.9167 34.0524 50.9688C34.0524 50.0208 34.7816 49.2917 35.7295 49.2917C36.6045 49.2917 37.3337 50.0208 37.4066 50.8958V50.9688V51.0417C37.3337 51.9167 36.6045 52.6458 35.7295 52.6458ZM61.3232 41.8542C61.1774 42.2188 59.792 42.5104 58.2607 42.4375V38.3542V33.6875V30.4063C58.2607 29.9688 58.2607 29.5312 58.2607 29.1667C60.5212 29.3125 61.2503 29.8229 61.3962 29.9688L61.3232 41.8542Z" fill="white"/>
</svg>
