<svg width="70" height="70" viewBox="0 0 70 70" fill="none" xmlns="http://www.w3.org/2000/svg">
<path d="M70 0H0V70H70V0Z" fill="#662D91"/>
<path d="M67.375 32.6666C67.375 27.5625 63.5104 23.4062 58.625 22.75V6.99996C58.625 6.19788 57.9688 5.54163 57.1667 5.54163H19.0312C18.2292 5.54163 17.5729 6.19788 17.5729 6.99996C17.5729 7.80204 18.2292 8.45829 19.0312 8.45829H55.7083V22.75H51.9167V13.4895C51.9167 12.6875 51.2604 12.0312 50.4583 12.0312H12.6875C11.8854 12.0312 11.2292 12.6875 11.2292 13.4895V19.3229C6.34375 19.9791 2.625 24.1354 2.625 29.1666C2.625 34.1979 6.34375 38.3541 11.2292 39.0104V60.7395C11.2292 61.5416 11.8854 62.1979 12.6875 62.1979H27.4896C28.2917 62.1979 28.9479 61.5416 28.9479 60.7395C28.9479 59.9375 28.2917 59.2812 27.4896 59.2812H14.1458V39.1562H36.75L34.2708 41.6354C33.6875 42.2187 33.6875 43.0937 34.2708 43.677C34.5625 43.9687 34.9271 44.1145 35.2917 44.1145C35.6562 44.1145 36.0208 43.9687 36.3125 43.677L41.2708 38.7187C41.8542 38.1354 41.8542 37.2604 41.2708 36.677L36.3125 31.7187C35.7292 31.1354 34.8542 31.1354 34.2708 31.7187C33.6875 32.302 33.6875 33.177 34.2708 33.7604L36.8229 36.3125H14.1458V14.9479H49V22.75H25.9583L28.4375 20.2708C29.0208 19.6875 29.0208 18.8125 28.4375 18.2291C27.8542 17.6458 26.9792 17.6458 26.3958 18.2291L21.4375 23.1875C20.8542 23.7708 20.8542 24.6458 21.4375 25.2291L26.3958 30.1875C26.6875 30.4791 27.0521 30.625 27.4167 30.625C27.7812 30.625 28.1458 30.4791 28.4375 30.1875C29.0208 29.6041 29.0208 28.7291 28.4375 28.1458L25.8854 25.5937H48.9271V59.2812H47.9792C47.1771 59.2812 46.5208 59.9375 46.5208 60.7395C46.5208 61.5416 47.1771 62.1979 47.9792 62.1979H50.3854C51.1875 62.1979 51.8437 61.5416 51.8437 60.7395V25.5937H55.6354V55.6354C55.6354 56.4375 56.2917 57.0937 57.0938 57.0937C57.8958 57.0937 58.5521 56.4375 58.5521 55.6354V42.5833C63.5104 42 67.375 37.7708 67.375 32.6666ZM5.54167 29.1666C5.54167 25.7395 7.94792 22.8958 11.2292 22.2395V36.0937C8.02083 35.4375 5.54167 32.5937 5.54167 29.1666ZM58.625 39.6666V25.7395C61.9062 26.3229 64.4583 29.2395 64.4583 32.6666C64.4583 36.1666 61.9062 39.0833 58.625 39.6666Z" fill="white"/>
<path d="M45.2812 54.7604C45.2812 50.677 41.9271 47.3229 37.8438 47.3229C33.7604 47.3229 30.4062 50.677 30.4062 54.7604C30.4062 57.3854 31.7917 59.6458 33.7604 60.9583L32.3021 64.6041C32.0104 65.3333 32.375 66.2083 33.1042 66.5C33.25 66.5729 33.4687 66.5729 33.6146 66.5729C34.1979 66.5729 34.7083 66.2083 35 65.625L36.4583 61.9791C36.8958 62.052 37.3333 62.125 37.7708 62.125C38.2083 62.125 38.6458 62.052 39.0104 61.9791L40.4687 65.625C40.6875 66.2083 41.2708 66.5729 41.8542 66.5729C42 66.5729 42.2187 66.5729 42.3646 66.5C43.0937 66.2083 43.4583 65.3333 43.1667 64.6041L41.7083 61.0312C43.8958 59.6458 45.2812 57.3854 45.2812 54.7604ZM37.8438 59.2083C35.3646 59.2083 33.3229 57.1666 33.3229 54.6875C33.3229 52.2083 35.3646 50.1666 37.8438 50.1666C40.3229 50.1666 42.3646 52.2083 42.3646 54.6875C42.3646 57.2395 40.3229 59.2083 37.8438 59.2083Z" fill="white"/>
</svg>
