<svg width="70" height="70" viewBox="0 0 70 70" fill="none" xmlns="http://www.w3.org/2000/svg">
<path d="M70 0H0V70H70V0Z" fill="#CF2C67"/>
<path d="M53.8854 9.1875H16.1146C15.3125 9.1875 14.6562 9.84375 14.6562 10.6458V57.9688C14.6562 58.7708 15.3125 59.4271 16.1146 59.4271H30.9167C31.7188 59.4271 32.375 58.7708 32.375 57.9688C32.375 57.1667 31.7188 56.5104 30.9167 56.5104H17.5729V12.1042H52.4271V56.5104H51.4792C50.6771 56.5104 50.0208 57.1667 50.0208 57.9688C50.0208 58.7708 50.6771 59.4271 51.4792 59.4271H53.8854C54.6875 59.4271 55.3438 58.7708 55.3438 57.9688V10.6458C55.3438 9.84375 54.6875 9.1875 53.8854 9.1875Z" fill="white"/>
<path d="M48.708 51.9166C48.708 47.8333 45.3538 44.4791 41.2705 44.4791C37.1872 44.4791 33.833 47.8333 33.833 51.9166C33.833 54.5416 35.2184 56.802 37.1872 58.1145L35.7288 61.7604C35.4372 62.4895 35.8018 63.3645 36.5309 63.6562C36.6768 63.7291 36.8955 63.7291 37.0413 63.7291C37.6247 63.7291 38.1351 63.3645 38.4268 62.7812L39.8851 59.1354C40.3226 59.2083 40.7601 59.2812 41.1976 59.2812C41.6351 59.2812 42.0726 59.2083 42.4372 59.1354L43.8955 62.7812C44.1143 63.3645 44.6976 63.7291 45.2809 63.7291C45.4268 63.7291 45.6455 63.7291 45.7913 63.6562C46.5205 63.3645 46.8851 62.4895 46.5934 61.7604L45.1351 58.1875C47.3226 56.802 48.708 54.5416 48.708 51.9166ZM41.2705 56.3645C38.7913 56.3645 36.7497 54.3229 36.7497 51.8437C36.7497 49.3645 38.7913 47.3229 41.2705 47.3229C43.7497 47.3229 45.7913 49.3645 45.7913 51.8437C45.7913 54.3958 43.7497 56.3645 41.2705 56.3645Z" fill="white"/>
<path d="M47.9795 16.7709H22.0941C21.292 16.7709 20.6357 17.4271 20.6357 18.2292C20.6357 19.0313 21.292 19.6875 22.0941 19.6875H47.9795C48.7816 19.6875 49.4378 19.0313 49.4378 18.2292C49.4378 17.4271 48.7816 16.7709 47.9795 16.7709Z" fill="white"/>
<path d="M22.0941 26.9792H45.3545C46.1566 26.9792 46.8128 26.3229 46.8128 25.5208C46.8128 24.7188 46.1566 24.0625 45.3545 24.0625H22.0941C21.292 24.0625 20.6357 24.7188 20.6357 25.5208C20.6357 26.3229 21.2191 26.9792 22.0941 26.9792Z" fill="white"/>
<path d="M47.9795 31.3541H22.0941C21.292 31.3541 20.6357 32.0104 20.6357 32.8125C20.6357 33.6145 21.292 34.2708 22.0941 34.2708H47.9795C48.7816 34.2708 49.4378 33.6145 49.4378 32.8125C49.4378 32.0104 48.7816 31.3541 47.9795 31.3541Z" fill="white"/>
<path d="M32.3024 38.6459H22.0941C21.292 38.6459 20.6357 39.3021 20.6357 40.1042C20.6357 40.9063 21.292 41.5625 22.0941 41.5625H32.3753C33.1774 41.5625 33.8337 40.9063 33.8337 40.1042C33.8337 39.3021 33.1045 38.6459 32.3024 38.6459Z" fill="white"/>
</svg>
