<svg width="70" height="70" viewBox="0 0 70 70" fill="none" xmlns="http://www.w3.org/2000/svg">
<path d="M70 0H0V70H70V0Z" fill="#B06FBE"/>
<path d="M47.4693 13.1979C47.1047 13.1979 46.7401 13.0521 46.4484 12.7604C40.1047 6.41663 31.6463 8.8958 31.2818 9.04163C30.4797 9.26038 29.6776 8.82288 29.4588 8.09372C29.2401 7.29163 29.6776 6.48955 30.4068 6.2708C30.8443 6.12497 40.9068 3.06247 48.4901 10.7187C49.0734 11.3021 49.0734 12.25 48.4901 12.7604C48.1984 13.0521 47.8338 13.1979 47.4693 13.1979Z" fill="white"/>
<path d="M52.5729 23.9166C52.1354 23.9166 51.7708 23.7707 51.4792 23.4062C38.5 8.677 21.4375 17.4999 20.7083 17.8645C19.9792 18.2291 19.1042 17.9374 18.7396 17.2812C18.375 16.552 18.5938 15.677 19.3229 15.3124C19.5417 15.2395 39.1563 5.03116 53.6667 21.5103C54.1771 22.0937 54.1771 23.0416 53.5208 23.552C53.3021 23.8437 52.9375 23.9166 52.5729 23.9166Z" fill="white"/>
<path d="M55.6354 41.9999C55.3438 41.9999 55.125 41.927 54.9062 41.7812C52.2083 40.1041 51.7708 37.8437 51.3333 35.8749C50.8958 33.5416 50.2396 30.9895 47.6875 28.0728C44.1146 23.9895 39.0104 21.5833 34.125 21.6562C26.0312 21.7291 15.6771 30.1874 15.6042 30.2603C14.9479 30.7708 14.0729 30.6978 13.5625 30.0416C13.0521 29.3853 13.125 28.5103 13.7812 27.9999C14.2187 27.6353 25.0833 18.7395 34.1979 18.7395H34.2708C40.0312 18.7395 45.8646 21.5103 49.9479 26.177C52.9375 29.6041 53.7396 32.6666 54.25 35.3645C54.6146 37.2603 54.9062 38.427 56.4375 39.3749C57.0938 39.8124 57.3125 40.6874 56.9479 41.3437C56.5833 41.7812 56.0729 41.9999 55.6354 41.9999Z" fill="white"/>
<path d="M53.5211 49.5833C53.3753 49.5833 53.1565 49.5833 53.0107 49.5104C45.719 46.8125 45.2815 41.8542 44.9899 37.8437C44.6982 34.7083 41.7086 29.8229 36.7503 28.7292C31.5732 27.6354 25.8128 31.3542 23.2607 33.6875C20.1253 36.6042 15.6045 39.9583 15.3857 40.1041C14.7295 40.6146 13.8545 40.4687 13.344 39.8125C12.8336 39.1562 12.9795 38.2812 13.6357 37.7708C13.7086 37.7708 18.2295 34.3437 21.219 31.5729C24.9378 28.1458 31.3545 24.6458 37.2607 25.8854C43.3857 27.1979 47.3961 32.8125 47.7607 37.5521C48.0524 41.4166 48.344 44.6979 53.8857 46.8125C54.6149 47.1041 55.0524 47.9062 54.7607 48.7083C54.6878 49.2187 54.1045 49.5833 53.5211 49.5833Z" fill="white"/>
<path d="M17.5006 51.9166C16.7715 51.9166 16.1152 51.3333 16.0423 50.6041C15.9694 49.802 16.5527 49.0728 17.3548 48.9999C20.9277 48.6353 25.084 45.7916 29.8236 40.6145C30.0423 40.3958 30.1881 40.177 30.2611 40.1041C30.8444 39.5208 32.4486 37.9166 34.1986 38.2812C34.9277 38.427 35.8756 39.0103 36.3861 40.6145C36.6048 41.2708 36.8965 41.6353 37.2611 41.7083C37.9173 41.927 38.8652 41.4166 39.084 41.2708C39.3027 41.1249 39.5944 40.6874 39.6673 39.9583C39.7402 39.302 39.6673 37.9166 38.2819 36.3124C37.4069 35.2187 35.7298 34.5624 33.9798 34.5624C31.3548 34.5624 28.8027 36.0208 26.6881 38.6458C21.5111 45.2083 17.1361 46.3749 16.9173 46.4478C16.1152 46.6666 15.3131 46.1562 15.1673 45.3541C14.9486 44.552 15.459 43.8228 16.1881 43.6041C16.2611 43.6041 19.9798 42.5103 24.4277 36.8958C27.0527 33.5416 30.4798 31.7187 33.9798 31.6458C36.6048 31.6458 39.084 32.6666 40.5423 34.4166C42.0736 36.2395 42.8027 38.2812 42.584 40.2499C42.4381 41.6353 41.8548 42.802 40.9069 43.5312C40.3965 43.9687 38.4277 45.0624 36.459 44.4791C35.5111 44.1874 34.3444 43.4583 33.6881 41.4895C33.6152 41.3437 33.5423 41.1978 33.5423 41.1249C33.3236 41.1978 33.0319 41.4895 32.4486 42.0728C32.3756 42.1458 32.2298 42.2916 32.084 42.5103C30.1152 44.6978 24.1361 51.2603 17.7194 51.8437C17.6465 51.8437 17.5736 51.9166 17.5006 51.9166Z" fill="white"/>
<path d="M19.9791 56.802C19.25 56.802 18.5937 56.2187 18.5208 55.4895C18.4479 54.6875 19.0312 53.9583 19.8333 53.8854C19.9062 53.8854 24.1354 53.375 29.4583 49.802C35.6562 45.6458 43.3125 47.25 46.8854 51.0416C48.9271 53.2291 50.8958 52.9375 50.9687 52.9375C51.7708 52.7916 52.5 53.302 52.6458 54.1041C52.7916 54.9062 52.2812 55.6354 51.552 55.7812C51.4062 55.7812 47.9791 56.5104 44.7708 53.0104C42.4375 50.5312 36.5312 48.5625 31.1354 52.2083C25.1562 56.2187 20.4166 56.7291 20.1979 56.802C20.125 56.802 20.0521 56.802 19.9791 56.802Z" fill="white"/>
<path d="M26.1776 61.3228C25.5214 61.3228 24.8651 60.8853 24.7193 60.1562C24.5734 59.3541 25.0839 58.6249 25.813 58.4062C25.8859 58.4062 30.1151 57.4583 33.2505 55.4166C37.8443 52.3541 40.5422 54.2499 43.0943 56.0729C43.9693 56.7291 44.9172 57.3853 46.0109 57.8958C46.7401 58.2604 47.0318 59.1353 46.6672 59.8645C46.3026 60.5937 45.4276 60.8853 44.6984 60.5208C43.3859 59.8645 42.2922 59.1353 41.3443 58.4791C38.8651 56.7291 37.6984 55.927 34.7818 57.8229C31.2089 60.2291 26.5422 61.2499 26.3964 61.2499C26.3234 61.3228 26.2505 61.3228 26.1776 61.3228Z" fill="white"/>
<path d="M33.6146 64.4583C33.1042 64.4583 32.5938 64.1667 32.375 63.7292C31.9375 63 32.2292 62.125 32.8854 61.7604C33.3959 61.4687 38.0625 58.8437 40.9792 61.25C41.5625 61.7604 41.6354 62.7083 41.125 63.2917C40.6146 63.875 39.6667 63.9479 39.0834 63.4375C38.0625 62.5625 35.4375 63.5833 34.3438 64.2396C34.125 64.3854 33.9063 64.4583 33.6146 64.4583Z" fill="white"/>
</svg>
