<svg width="80" height="80" viewBox="0 0 80 80" fill="none" xmlns="http://www.w3.org/2000/svg">
<rect width="80" height="80" rx="40" fill="#2E3192"/>
<path d="M59.9326 18.4H19.2659C17.0209 18.4028 15.202 20.2217 15.1992 22.4667V48.4934C15.202 50.7384 17.0209 52.5572 19.2659 52.56H34.6112L34.0012 57.44H31.4659C31.0167 57.44 30.6526 57.8042 30.6526 58.2534V61.5067C30.6526 61.9559 31.0167 62.32 31.4659 62.32H47.7326C48.1817 62.32 48.5459 61.9559 48.5459 61.5067V58.2534C48.5459 57.8042 48.1817 57.44 47.7326 57.44H45.1972L44.5872 52.56H59.9326C62.1776 52.5572 63.9964 50.7384 63.9992 48.4934V22.4667C63.9964 20.2217 62.1776 18.4028 59.9326 18.4ZM19.2659 20.0267H59.9326C61.28 20.0267 62.3726 21.1192 62.3726 22.4667V44.4267H16.8259V22.4667C16.8259 21.1192 17.9184 20.0267 19.2659 20.0267ZM46.9192 60.6934H32.2792V59.0667H46.9192V60.6934ZM43.5579 57.44H35.6406L36.2506 52.56H42.9479L43.5579 57.44ZM59.9326 50.9334H19.2659C17.9184 50.9334 16.8259 49.8408 16.8259 48.4934V46.0534H62.3726V48.4934C62.3726 49.8408 61.28 50.9334 59.9326 50.9334Z" fill="white"/>
<path d="M58.6145 47.7451C58.3115 47.6216 57.9636 47.6883 57.7281 47.9159C57.4136 48.2367 57.4136 48.7498 57.7281 49.0707C57.7666 49.1057 57.8075 49.1382 57.85 49.1684C57.8953 49.199 57.9445 49.2236 57.9965 49.2415C58.0426 49.2649 58.0919 49.2816 58.1427 49.2903C58.1967 49.2999 58.2511 49.3054 58.3055 49.3066C58.6359 49.3086 58.9346 49.1104 59.0613 48.805C59.188 48.5 59.1177 48.1486 58.883 47.9159C58.8039 47.844 58.713 47.7864 58.6145 47.7451Z" fill="white"/>
<path d="M24.9598 31.4133H31.4665C31.9156 31.4133 32.2798 31.0491 32.2798 30.5999V26.0567L34.4815 23.855L33.3314 22.7049L32.223 23.8133C32.1079 23.4944 31.8056 23.2811 31.4665 23.2799H24.9598C24.5107 23.2799 24.1465 23.6441 24.1465 24.0933V30.5999C24.1465 31.0491 24.5107 31.4133 24.9598 31.4133ZM25.7732 24.9066H30.6532V25.3832L29.0265 27.0098L27.9749 25.9582L26.8248 27.1083L28.4514 28.735C28.7691 29.0523 29.2838 29.0523 29.6015 28.735L30.6532 27.6834V29.7866H25.7732V24.9066Z" fill="white"/>
<path d="M24.9598 41.1734H31.4665C31.9156 41.1734 32.2798 40.8092 32.2798 40.36V35.8168L34.4815 33.6151L33.3314 32.465L32.223 33.5734C32.1079 33.2545 31.8056 33.0412 31.4665 33.04H24.9598C24.5107 33.04 24.1465 33.4042 24.1465 33.8534V40.36C24.1465 40.8092 24.5107 41.1734 24.9598 41.1734ZM25.7732 34.6667H30.6532V35.1432L29.0265 36.7699L27.9749 35.7183L26.8248 36.8684L28.4514 38.4951C28.7691 38.8124 29.2838 38.8124 29.6015 38.4951L30.6532 37.4435V39.5467H25.7732V34.6667Z" fill="white"/>
<path d="M37.9727 29.7866H52.6127V31.4133H37.9727V29.7866Z" fill="white"/>
<path d="M37.9727 24.9066H47.7327V26.5333H37.9727V24.9066Z" fill="white"/>
<path d="M37.9727 39.5466H52.6127V41.1732H37.9727V39.5466Z" fill="white"/>
<path d="M37.9727 34.6666H41.226V36.2933H37.9727V34.6666Z" fill="white"/>
<path d="M42.8535 34.6666H52.6135V36.2933H42.8535V34.6666Z" fill="white"/>
</svg>
