<svg width="80" height="80" viewBox="0 0 80 80" fill="none" xmlns="http://www.w3.org/2000/svg">
<rect width="80" height="80" rx="40" fill="#2E3192"/>
<path d="M60.3617 48.6194L61.1355 47.2789C61.6121 46.4537 61.8124 45.5214 61.7251 44.5916C61.738 44.5293 61.7449 44.4647 61.7449 44.3985V37.3153C61.7449 31.5212 59.4838 26.0741 55.3783 21.9772C51.2732 17.881 45.8156 15.625 40.0105 15.625C34.2053 15.625 28.7477 17.881 24.6428 21.9772C20.5373 26.0741 18.2762 31.5213 18.2762 37.3153V44.9192C18.259 45.739 18.465 46.5506 18.8856 47.2788L19.6331 48.5735C18.8719 49.0562 18.3272 49.7954 18.0925 50.6714C17.8446 51.5967 17.9718 52.5632 18.4507 53.3928L19.4562 55.1345C20.1198 56.2836 21.3277 56.9269 22.568 56.9268C23.128 56.9268 23.6942 56.7939 24.2203 56.519L24.4022 56.834C25.009 57.885 25.9889 58.6369 27.1612 58.9512C27.5526 59.0559 27.9499 59.1079 28.3446 59.1079C29.1319 59.1079 29.9089 58.9013 30.6091 58.4971L31.9242 57.7378C32.9752 57.131 33.7271 56.1511 34.0413 54.9788C34.3555 53.8065 34.1942 52.582 33.5873 51.5309L28.0707 41.9758C27.4639 40.9248 26.484 40.1729 25.3117 39.8587C24.9937 39.7735 24.6717 39.7246 24.3505 39.7087V37.3593C24.3505 30.4585 28.9689 24.2798 35.5818 22.334C36.0846 22.1859 36.3723 21.6584 36.2244 21.1555C36.0764 20.6526 35.5489 20.3652 35.0459 20.5128C31.4832 21.5613 28.2776 23.7759 26.0196 26.7489C23.6858 29.8219 22.4522 33.4908 22.4522 37.3593V39.8613C22.4522 39.9157 22.4578 39.9688 22.4666 40.0207C22.2606 40.1025 22.0591 40.1998 21.8637 40.3126L20.5487 41.0719C20.4192 41.1466 20.2945 41.2271 20.1744 41.3128V37.3153C20.1744 26.4019 29.0729 17.5232 40.0106 17.5232C50.9482 17.5232 59.8467 26.4019 59.8467 37.3153V41.3128C59.7266 41.2271 59.6018 41.1466 59.4724 41.0719L58.1574 40.3126C57.962 40.1998 57.7605 40.1025 57.5545 40.0207C57.5633 39.9688 57.5689 39.9158 57.5689 39.8613V37.3593C57.5689 33.4495 56.3114 29.7491 53.9323 26.6582C51.6287 23.6656 48.3676 21.4601 44.75 20.4482C44.2458 20.3073 43.7215 20.6018 43.5804 21.1067C43.4392 21.6114 43.7339 22.1351 44.2388 22.2764C50.9696 24.159 55.6706 30.3614 55.6706 37.3593V39.7086C55.3493 39.7245 55.0274 39.7734 54.7093 39.8587C53.5369 40.1729 52.557 40.9247 51.9503 41.9758L46.4337 51.5309C45.8267 52.582 45.6656 53.8066 45.9797 54.9788C46.294 56.1512 47.0457 57.1311 48.0969 57.7378L49.4119 58.4971C50.1121 58.9014 50.889 59.108 51.6764 59.1079C52.071 59.1079 52.4684 59.0559 52.8598 58.9512C54.0322 58.6369 55.0121 57.8851 55.6188 56.834L55.7796 56.5555C56.2539 56.7868 56.7655 56.9077 57.284 56.9159V59.0462C57.284 60.8516 55.8151 62.3206 54.0096 62.3206H43.4642V59.6631C43.4642 57.779 41.9315 56.2463 40.0475 56.2463C38.1634 56.2463 36.6307 57.779 36.6307 59.6631V63.2697C36.6307 63.7937 37.0557 64.2188 37.5798 64.2188H54.0096C56.8619 64.2188 59.1822 61.8984 59.1822 59.0462V56.4114C59.7037 56.1017 60.1405 55.6627 60.4521 55.1231L61.4578 53.3814C62.4034 51.7434 61.905 49.6626 60.3617 48.6194ZM21.4978 42.7158L22.8128 41.9565C23.2284 41.7166 23.6826 41.6026 24.1312 41.6026C25.0462 41.6026 25.9373 42.0773 26.4269 42.925L31.9435 52.4801C32.673 53.7435 32.2385 55.3647 30.9752 56.0941L29.6601 56.8534C28.3966 57.5828 26.7755 57.1483 26.0461 55.885L20.5294 46.3298C19.7999 45.0665 20.2343 43.4452 21.4978 42.7158ZM20.5839 50.2206L23.27 54.8731C22.9119 55.0394 22.5107 55.0754 22.125 54.9718C21.6895 54.8552 21.3254 54.5758 21.1 54.1854L20.0944 52.4437C19.869 52.0532 19.8091 51.5983 19.9259 51.1628C20.0293 50.7768 20.2608 50.4475 20.5839 50.2206ZM41.5661 62.3206H38.529V59.6631C38.529 58.8258 39.2103 58.1445 40.0476 58.1445C40.8849 58.1445 41.5661 58.8258 41.5661 59.6631V62.3206ZM53.9751 55.8848C53.2457 57.1482 51.6243 57.5825 50.361 56.8533L49.046 56.094C47.7825 55.3645 47.3481 53.7433 48.0776 52.48L53.5942 42.9249C54.0837 42.0771 54.9748 41.6025 55.8899 41.6025C56.3384 41.6025 56.7928 41.7166 57.2083 41.9565L58.5233 42.7157C59.7868 43.4452 60.2212 45.0665 59.4917 46.3297L53.9751 55.8848ZM59.814 52.4323L58.8084 54.1741C58.5829 54.5644 58.219 54.8439 57.7834 54.9605C57.4316 55.0547 57.0676 55.0318 56.7347 54.9014L59.4069 50.273C60.0459 50.7851 60.2356 51.7018 59.814 52.4323Z" fill="white"/>
<path d="M40.0101 19.801C39.9643 19.801 39.9192 19.8043 39.8752 19.8106C39.3529 19.88 39.0452 20.3233 39.0449 20.7502C39.0447 21.2123 39.4022 21.694 40.0005 21.7C40.0038 21.7001 40.007 21.7001 40.0102 21.7001C40.0422 21.7001 40.0737 21.6985 40.1048 21.6954C40.5909 21.6511 40.9774 21.2418 40.9752 20.7459C40.9728 20.2234 40.5326 19.801 40.0101 19.801Z" fill="white"/>
<path d="M35.2721 45.0941H35.1981C34.674 45.0941 34.249 45.5191 34.249 46.0432C34.249 46.5672 34.674 46.9922 35.1981 46.9922H35.2721C35.7962 46.9922 36.2212 46.5672 36.2212 46.0432C36.2212 45.5191 35.7962 45.0941 35.2721 45.0941Z" fill="white"/>
<path d="M40.0474 45.0941H39.9735C39.4494 45.0941 39.0244 45.5191 39.0244 46.0432C39.0244 46.5672 39.4493 46.9922 39.9735 46.9922H40.0474C40.5715 46.9922 40.9965 46.5672 40.9965 46.0432C40.9965 45.5191 40.5714 45.0941 40.0474 45.0941Z" fill="white"/>
<path d="M44.8229 45.0941H44.7489C44.2248 45.0941 43.7998 45.5191 43.7998 46.0432C43.7998 46.5672 44.2248 46.9922 44.7489 46.9922H44.8229C45.347 46.9922 45.772 46.5672 45.772 46.0432C45.772 45.5191 45.3469 45.0941 44.8229 45.0941Z" fill="white"/>
</svg>
