<svg width="80" height="80" viewBox="0 0 80 80" fill="none" xmlns="http://www.w3.org/2000/svg">
<rect width="80" height="80" rx="40" fill="#2E3192"/>
<path d="M60.1065 35.2971L56.962 34.7637C56.6344 33.7062 56.2133 32.6861 55.6986 31.7128L57.5516 29.1204C58.3377 28.0161 58.216 26.5094 57.2521 25.5548L54.4632 22.7659C53.9391 22.2419 53.2466 21.9517 52.5073 21.9517C51.927 21.9517 51.3749 22.1295 50.9069 22.4665L48.3052 24.3195C47.2945 23.786 46.237 23.3462 45.142 23.0186L44.6179 19.9116C44.3933 18.5733 43.2422 17.6 41.8852 17.6H37.9453C36.5883 17.6 35.4371 18.5733 35.2125 19.9116L34.6697 23.0935C33.6216 23.421 32.6015 23.8515 31.6282 24.3756L29.0546 22.5226C28.5866 22.1857 28.0251 22.0079 27.4449 22.0079C26.7055 22.0079 26.0037 22.298 25.4889 22.8221L22.6907 25.611C21.7361 26.5655 21.6051 28.0723 22.3912 29.1766L24.2629 31.8064C23.7482 32.789 23.3364 33.8091 23.0183 34.8666L19.9112 35.3907C18.5729 35.6153 17.5996 36.7664 17.5996 38.1234V42.0634C17.5996 43.4204 18.5729 44.5715 19.9112 44.7961L23.0931 45.3389C23.4207 46.3871 23.8512 47.4072 24.3753 48.3805L22.5316 50.9447C21.7455 52.0491 21.8671 53.5558 22.8311 54.5104L25.6199 57.2992C26.144 57.8233 26.8366 58.1134 27.5759 58.1134C28.1561 58.1134 28.7083 57.9356 29.1762 57.5987L31.806 55.727C32.7512 56.223 33.7432 56.6254 34.7633 56.9436L35.2874 60.0881C35.512 61.4264 36.6631 62.3997 38.0201 62.3997H41.9695C43.3265 62.3997 44.4776 61.4264 44.7022 60.0881L45.2356 56.9436C46.2931 56.6161 47.3132 56.1949 48.2865 55.6802L50.8789 57.5332C51.3468 57.8701 51.9083 58.0479 52.4885 58.0479C53.2279 58.0479 53.9204 57.7578 54.4445 57.2337L57.2334 54.4449C58.1879 53.4903 58.319 51.9835 57.5328 50.8792L55.6798 48.2775C56.1946 47.2949 56.6251 46.2748 56.9433 45.2266L60.0877 44.7025C61.426 44.4779 62.3993 43.3268 62.3993 41.9698V38.0298C62.418 36.6728 61.4448 35.5217 60.1065 35.2971ZM59.8912 41.9698C59.8912 42.0915 59.807 42.1944 59.6853 42.2131L55.7547 42.8683C55.2587 42.9525 54.8656 43.3175 54.744 43.7948C54.3883 45.1705 53.8455 46.49 53.1156 47.716C52.8629 48.1465 52.8816 48.68 53.1717 49.0917L55.4833 52.3485C55.5488 52.4421 55.5395 52.5825 55.4552 52.6667L52.6664 55.4556C52.6009 55.5211 52.5353 55.5305 52.4885 55.5305C52.4324 55.5305 52.3856 55.5117 52.3482 55.4837L49.1007 53.1721C48.6983 52.882 48.1555 52.8633 47.725 53.1159C46.499 53.8459 45.1795 54.3887 43.8037 54.7443C43.3171 54.866 42.9521 55.2684 42.8772 55.7551L42.2128 59.6857C42.1941 59.8074 42.0911 59.8916 41.9695 59.8916H38.0295C37.9078 59.8916 37.8049 59.8074 37.7862 59.6857L37.1311 55.7551C37.0468 55.2591 36.6818 54.866 36.2045 54.7443C34.8663 54.3981 33.5748 53.8646 32.3675 53.1721C32.171 53.0598 31.9464 53.0036 31.7311 53.0036C31.4784 53.0036 31.2164 53.0785 31.0012 53.2376L27.7256 55.5679C27.6788 55.596 27.6321 55.6147 27.5853 55.6147C27.5478 55.6147 27.473 55.6053 27.4074 55.5398L24.6186 52.751C24.5343 52.6667 24.525 52.5357 24.5905 52.4328L26.8927 49.204C27.1828 48.7923 27.2016 48.2495 26.9489 47.819C26.2189 46.6023 25.6574 45.2828 25.3018 43.9071C25.1707 43.4298 24.7777 43.0648 24.291 42.9806L20.3323 42.3067C20.2107 42.288 20.1264 42.1851 20.1264 42.0634V38.1234C20.1264 38.0018 20.2107 37.8988 20.3323 37.8801L24.2349 37.225C24.7309 37.1408 25.1333 36.7758 25.255 36.2891C25.6012 34.9134 26.1347 33.5845 26.8553 32.3585C27.108 31.928 27.0799 31.3946 26.7898 30.9922L24.4595 27.7166C24.394 27.6231 24.4033 27.4827 24.4876 27.3985L27.2764 24.6096C27.3419 24.5441 27.4074 24.5347 27.4542 24.5347C27.5104 24.5347 27.5572 24.5534 27.5946 24.5815L30.8233 26.8837C31.2351 27.1738 31.7779 27.1926 32.2084 26.9399C33.425 26.2099 34.7446 25.6484 36.1203 25.2928C36.5976 25.1617 36.9626 24.7687 37.0468 24.282L37.7206 20.3233C37.7394 20.2017 37.8423 20.1174 37.964 20.1174H41.9039C42.0256 20.1174 42.1286 20.2017 42.1473 20.3233L42.8024 24.2259C42.8866 24.7219 43.2516 25.1243 43.7382 25.246C45.1514 25.6016 46.499 26.1538 47.7531 26.8931C48.1836 27.1458 48.717 27.1271 49.1288 26.8369L52.3575 24.516C52.4043 24.4879 52.4511 24.4692 52.4979 24.4692C52.5353 24.4692 52.6102 24.4786 52.6757 24.5441L55.4646 27.3329C55.5488 27.4172 55.5582 27.5482 55.4927 27.6511L53.1811 30.8986C52.891 31.301 52.8723 31.8438 53.1249 32.2743C53.8549 33.5003 54.3977 34.8198 54.7533 36.1956C54.875 36.6822 55.2774 37.0472 55.7641 37.1221L59.6947 37.7865C59.8163 37.8052 59.9006 37.9082 59.9006 38.0298V41.9698H59.8912Z" fill="white"/>
<path d="M40.0044 30.3276C34.67 30.3276 30.3369 34.6607 30.3369 39.9951C30.3369 45.3295 34.67 49.6626 40.0044 49.6626C45.3388 49.6626 49.6718 45.3295 49.6718 39.9951C49.6718 34.6607 45.3388 30.3276 40.0044 30.3276ZM40.0044 47.1357C36.0644 47.1357 32.8637 43.9351 32.8637 39.9951C32.8637 36.0551 36.0644 32.8545 40.0044 32.8545C43.9443 32.8545 47.145 36.0551 47.145 39.9951C47.145 43.9351 43.9443 47.1357 40.0044 47.1357Z" fill="white"/>
</svg>
